<?xml version="1.0" encoding="utf-8"?>
<svg xmlns="http://www.w3.org/2000/svg"
	xmlns:xlink="http://www.w3.org/1999/xlink"
	width="50px" height="50px">
<path fill="rgb(245,165,29)" fill-rule="evenodd" d="M 25.02 0.02C 11.24 0.02 0.02 11.24 0.02 25.02 0.02 38.8 11.24 50.02 25.02 50.02 38.8 50.02 50.02 38.8 50.02 25.02 50.02 11.24 38.8 0.02 25.02 0.02ZM 9.23 37.93C 6.65 34.91 5.06 31.31 4.59 27.44 4.59 27.44 10.74 27.44 10.74 27.44 10.9 30.5 11.36 33.4 12.1 36.08 11.09 36.63 10.13 37.25 9.23 37.93ZM 10.74 22.6C 10.74 22.6 4.59 22.6 4.59 22.6 5.06 18.73 6.65 15.14 9.23 12.13 10.1 12.79 11.06 13.41 12.1 13.96 11.35 16.64 10.9 19.54 10.74 22.6ZM 12.8 41.23C 13.11 41.03 13.42 40.84 13.74 40.66 14.02 41.27 14.31 41.84 14.61 42.4 13.98 42.04 13.37 41.65 12.8 41.23ZM 13.75 9.37C 13.41 9.19 13.09 9 12.8 8.81 13.37 8.39 13.98 8 14.61 7.65 14.3 8.19 14.02 8.77 13.75 9.37ZM 22.82 44.62C 20.99 43.72 19.28 41.74 17.92 38.9 19.48 38.43 21.13 38.12 22.82 37.97 22.82 37.97 22.82 44.62 22.82 44.62ZM 22.82 33.13C 20.53 33.29 18.33 33.7 16.27 34.36 15.67 32.19 15.29 29.86 15.14 27.44 15.14 27.44 22.82 27.44 22.82 27.44 22.82 27.44 22.82 33.13 22.82 33.13ZM 22.82 22.6C 22.82 22.6 15.14 22.6 15.14 22.6 15.29 20.18 15.67 17.86 16.26 15.68 18.33 16.33 20.53 16.74 22.82 16.91 22.82 16.91 22.82 22.6 22.82 22.6ZM 22.82 12.07C 21.12 11.92 19.48 11.61 17.92 11.14 19.28 8.3 20.99 6.32 22.82 5.42 22.82 5.42 22.82 12.07 22.82 12.07ZM 27.22 5.42C 29.05 6.32 30.76 8.3 32.12 11.14 30.55 11.61 28.91 11.92 27.22 12.06 27.22 12.06 27.22 5.42 27.22 5.42ZM 27.22 44.62C 27.22 44.62 27.22 37.97 27.22 37.97 28.92 38.12 30.57 38.43 32.12 38.9 30.76 41.74 29.06 43.72 27.22 44.62ZM 33.78 34.36C 31.72 33.71 29.51 33.3 27.22 33.13 27.22 33.13 27.22 27.44 27.22 27.44 27.22 27.44 34.9 27.44 34.9 27.44 34.75 29.86 34.37 32.19 33.78 34.36ZM 27.22 22.6C 27.22 22.6 27.22 16.91 27.22 16.91 29.52 16.75 31.72 16.34 33.78 15.68 34.37 17.86 34.75 20.18 34.9 22.6 34.9 22.6 27.22 22.6 27.22 22.6ZM 35.44 42.4C 35.74 41.85 36.02 41.28 36.3 40.68 36.63 40.86 36.95 41.05 37.24 41.23 36.66 41.65 36.06 42.04 35.44 42.4ZM 36.3 9.38C 36.03 8.78 35.74 8.2 35.44 7.64 36.07 8 36.67 8.39 37.25 8.81 36.94 9.01 36.62 9.2 36.3 9.38ZM 40.8 12.11C 43.39 15.13 44.98 18.73 45.45 22.61 45.45 22.61 39.3 22.61 39.3 22.61 39.14 19.55 38.68 16.64 37.94 13.95 38.95 13.41 39.91 12.79 40.8 12.11ZM 40.81 37.92C 39.93 37.24 38.97 36.63 37.94 36.08 38.69 33.4 39.14 30.5 39.3 27.44 39.3 27.44 45.45 27.44 45.45 27.44 44.98 31.3 43.39 34.9 40.81 37.92Z"/>
</svg>