<?xml version="1.0" encoding="utf-8"?>
<svg xmlns="http://www.w3.org/2000/svg"
	xmlns:xlink="http://www.w3.org/1999/xlink"
	width="20px" height="11px">
<path fill="rgb(41,85,41)" fill-rule="evenodd" d="M 10 11C 9.64 11 9.28 10.87 9.01 10.6 9.01 10.6 0.41 2.3 0.41 2.3-0.14 1.77-0.14 0.92 0.41 0.39 0.95-0.14 1.84-0.14 2.39 0.39 2.39 0.39 10 7.74 10 7.74 10 7.74 17.6 0.39 17.6 0.39 18.15-0.14 19.04-0.14 19.59 0.39 20.13 0.92 20.13 1.77 19.59 2.3 19.59 2.3 10.99 10.6 10.99 10.6 10.71 10.87 10.35 11 10 11Z"/>
</svg>