<?xml version="1.0" encoding="utf-8"?>
<svg xmlns="http://www.w3.org/2000/svg"
	xmlns:xlink="http://www.w3.org/1999/xlink"
	width="11px" height="20px">
<path fill="rgb(61,123,65)" fill-rule="evenodd" d="M-0 10C-0 9.64 0.13 9.28 0.4 9.01 0.4 9.01 8.7 0.41 8.7 0.41 9.23-0.14 10.08-0.14 10.61 0.41 11.14 0.95 11.14 1.84 10.61 2.39 10.61 2.39 3.26 10 3.26 10 3.26 10 10.61 17.6 10.61 17.6 11.14 18.15 11.14 19.04 10.61 19.59 10.08 20.13 9.23 20.13 8.7 19.59 8.7 19.59 0.4 10.99 0.4 10.99 0.13 10.71-0 10.35-0 10Z"/>
</svg>