<?xml version="1.0" encoding="utf-8"?>
<svg
 id="map"
 xml:space="preserve"
 xmlns="http://www.w3.org/2000/svg"
 xmlns:xlink="http://www.w3.org/1999/xlink"
 width="795px"
 height="437px"
 x="0px"
 y="0px"
 version="1.1"
 viewBox="0 0 795 437"
 enable-background="new 0 0 795 437"
>
  <filter id="text-bg-shadow" x="-7.23%" y="-44.90%" width="114.46%" height="212.24%" filterUnits="objectBoundingBox">
    <feGaussianBlur in="SourceAlpha" result="dsBlurOut" stdDeviation="11.00"/>
    <feFlood result="dsFloodOut" flood-color="rgb(0,0,0)"/>
    <feComposite in="dsFloodOut" in2="dsBlurOut" result="dsShadow" operator="atop"/>
    <feComponentTransfer in="dsShadow" result="dsShadowOpacity">
      <feFuncA type="linear" slope="0.25"/>
    </feComponentTransfer>
    <feOffset in="dsShadowOpacity" dx="5.00" dy="8.66" result="dsOffset"/>
    <feComposite in="dsOffset" in2="SourceAlpha" result="dropShadow" operator="out"/>
  </filter>

  <defs>
    <style>
      #borders {
        display: none;
      }
      .region {
        fill: #69AF45;
        stroke: #2D592B;
        stroke-width: 1px;
      }
      .region.yellow {
        fill: #F1EB35;
      }
      .region-wrap:hover .region.highlight {
        fill: #FACD1A;
      }
      .target-active,
      .text {
        display: none;
      }
      .region-wrap:hover .target {
        display: none;
      }
      .region-wrap:hover .target-active,
      .region-wrap:hover .text {
        display: block;
      }
      text {
        fill: #fff;
        font-family: 'Roboto', sans-serif;
        font-size: 10px;
        text-transform: uppercase;
        cursor: default;
      }
      text.small {
        font-size: 8.7px;
      }
    </style>
    <path id="text-bg" fill-rule="evenodd" d="M 336 55C 336 55 200.17 55 200.17 55 200.17 55 191.62 63.55 191.62 63.55 191.62 63.55 183.06 55 183.06 55 183.06 55 44 55 44 55 32.95 55 24 46.05 24 35 24 23.95 32.95 15 44 15 44 15 336 15 336 15 347.05 15 356 23.95 356 35 356 46.05 347.05 55 336 55Z"/>
  </defs>

  <g id="off-area" transform="translate(-256, -469)">
    <path class="region" transform="translate(1, -1)" d="M360.7,540c1,1,2.1,1.9,3,2.9c0.8,1,1.5,2.2,2.2,3.3c0.7,1.1,1.5,2,2.8,2.4c0.5,0.1,0.9,0.6,1.3,1
      c2,2.4,3.1,2.4,5.5,0.5c1.1-0.9,1.9-1.7,2-3.2c0-0.4,0.7-0.9,1-0.9c1.5,0.1,2.3-0.7,3-1.8c0.2-0.4,0.6-0.7,0.9-1.1
      c0.5,0.6,1,1.2,1.5,1.7c0.8,0.7,1.4,0.5,2.1-0.2c0.3-0.3,0.8-0.5,1.2-0.6c0.5-0.1,1,0,1.5,0c1.6,0,1.9,0.3,2.3,1.9
      c0.1,0.6,0.1,1.2,0.4,1.6c0.2,0.5,0.7,1.1,1.1,1.1c0.5,0,1-0.5,1.4-0.8c0.2-0.2,0.3-0.5,0.6-0.8c0.3,0.2,0.5,0.4,0.7,0.6
      c0.4,0.2,0.8,0.6,1.1,0.5c0.3-0.1,0.6-0.6,0.7-1c0.2-0.7,0.3-1.4,0.5-2.3c0.9,0.5,1.6,0.9,2.4,1.3c1.4,0.7,2,0.5,2.7-0.9
      c0.5-1,0.9-1.1,1.5-0.1c0.4,0.7,0.9,1.5,0.9,2.2c0,1.5,0.6,2.5,1.6,3.5c2.1,2.2,4.7,3.6,7.6,4.6c0.7,0.3,1.3,0.4,1.1,1.4
      c-0.1,1.1,0.5,1.5,1.6,1.2c0.8-0.2,1.7-0.2,2.4-0.6c0.7-0.3,1.3-0.9,1.7-1.5c0.4-0.7,0.6-1.6,0.8-2.4c0.2-0.5,0.4-1,0.7-1.6
      c0.1,2.4,2.1,2.5,3.6,3.2c3.8,1.7,7.4,0.8,11-0.9c1.3-0.6,2.2-1.7,2.6-3.1c0.4-1.5,0.7-2.9,1.1-4.4c0.2-0.9,0.6-1.6,1.7-1.5
      c1.1,0.1,1.6,0.6,1.8,1.7c0.2,1.2,0.4,2.4,2,2.4c0.1,0,0.2,0,0.2,0.1c1.2,1.4,2.3,2.7,3.6,4.3c-0.8,0.2-1.5,0.2-2,0.5
      c-0.5,0.3-1.3,0.8-1.3,1.3c0,0.5,0.5,1.3,1,1.5c1.1,0.4,1.4,1.1,1.7,2.1c0.8,2.2,1.8,4.3,2.8,6.4c0.6,1.2,1.2,2.2,1.8,3.4
      c0.5,0.8,0.2,1.3-0.7,1.6c-3.3,1-5.9,4.8-5.5,8.3c0.2,2.2,0.3,4.4,0.4,6.6c0.1,1.8,2.1,4.6,3.7,5.2c0.3,0.1,0.8,0,1.1-0.1
      c0.8-0.3,1.2-0.1,1.3,0.7c0.2,2.4,1.7,3.7,3.8,4.5c2.5,1,4.3,2.7,5.7,5.1c1.4,2.4,3.1,4.7,4.7,7.1c0.5,0.8,0.6,1.3-0.3,1.8
      c-3.6,2.3-7.2,4.5-10.8,6.8c-1.5,1-3,2.1-4.6,3.1c-0.8,0.5-1.7,0.9-2.6,1.3c-0.9,0.4-1.7,0-1.7-0.9c-0.1-2.9-2-4.5-3.9-6.3
      c-1.2-1.2-2.2-2.6-3.2-4c-0.5-0.7-1.1-1.2-2-1.2c-1.7,0-3.3,0-5-0.2c-1.1-0.1-1.7,0.4-2.2,1.3c-1.3,2.6-2.8,5.2-4.1,7.8
      c-0.5,1-1,1.4-2.2,1.1c-1.5-0.4-3.1-0.5-4.7-0.8c-0.7-0.1-1,0.1-1,0.8c-0.1,1.2-0.2,2.5-0.2,3.7c-0.1,1-0.5,1.6-1.5,1.4
      c-1.5-0.2-2.7,0.4-3.7,1.5c-6.1,6.4-12.3,12.9-18.4,19.3c-0.5,0.6-1,0.9-1.8,0.7c-0.7-0.2-1.5,0.1-2.2,0.2
      c-6.8,1.4-13.6,2.8-20.5,4.2c-1.7,0.3-1.9,0.2-1.7-1.5c0.8-7.6-0.5-14.9-2.4-22.2c-0.2-0.9-0.7-1.5-1.5-1.8
      c-0.4-0.2-0.7-0.4-1.1-0.5c-4.6-1.3-7-4.9-9.4-8.6c-0.9-1.5-0.8-2.9-0.5-4.5c0.8-4.2,1.5-8.4,2.2-12.6c0.1-0.8,0.1-2-0.4-2.6
      c-1.2-1.7-0.9-3.5-0.7-5.2c0.2-2.1,0.6-4.1,1-6.1c0.2-1.3-1.2-3-2.6-3c-0.8,0-1.1,0.5-1.3,1.2c-0.6,1.6-0.7,1.7-2.2,0.9
      c-0.4-0.2-0.9-0.4-1.3-0.7c-1.3-0.7-2.2-1.7-2.3-3.3c0-0.6-0.2-1.1-0.1-1.7c0.2-2.5-0.9-4.4-3-5.7c-0.7-0.5-0.8-0.9-0.5-1.7
      c0.3-0.9,0.5-1.8,0.5-2.7c0.1-1,0.5-1.4,1.4-1.3c1.8,0.2,3.7,0.4,5.5,0.5c0.7,0.1,1.4,0.1,2,0.1c0.9-0.1,1.3-0.6,0.7-1.4
      c-0.5-0.8-0.2-1.2,0.2-1.8c0.7-0.8,1.3-1.5,1.9-2.4c0.9-1.2,0.8-2.1-0.1-3.3c-0.5-0.6-0.7-1.3-0.4-2.1c0.6-1.7,1.2-3.3,1.8-5
      c0.2-0.6,0.4-0.9,1.1-0.8c1,0.1,1.8-0.5,1.8-1.4c0.1-2.3,0-4.6-0.1-6.8c0-0.3-0.1-0.6-0.2-1C360.4,540.2,360.6,540.1,360.7,540z"/>
    <path class="region" transform="translate(1, -0.95)" d="M491.4,697.3c-0.7,0.3-1.1,0.4-1.5,0.6c-2.5,1.3-2.5,1.3-3.8-1.3c-0.6-1.2-1.3-2.5-1.9-3.7
      c-0.4-1-1.1-1.6-2.1-1.9c-1.5-0.3-2.5-1.3-3.2-2.6c-0.9-1.5-1.9-3-2.8-4.5c-0.4-0.7-0.9-0.8-1.6-0.4c-1.8,0.9-3.6,1.9-5.5,2.7
      c-0.6,0.3-1.4,0.4-2.1,0.3c-4.8-0.5-9.6-1.1-14.4-1.5c-2-0.1-4,0.4-6.1,0.6c-3.1,0.4-6.2,0.8-9.3,1.1c-0.4,0-1-0.2-1.3-0.6
      c-3.1-4.1-6.2-8.2-9.2-12.5c-0.5-0.7-0.6-1.9-0.6-2.9c0-1-0.4-1.7-1.2-2.4c-9.3-7.3-18.6-14.7-27.9-22.1c-0.8-0.6-0.9-1.1-0.2-1.8
      c6.1-6.4,12.3-12.8,18.4-19.3c1.2-1.3,2.6-1.7,4.3-1.5c0.8,0.1,1.1-0.1,1.1-0.9c0-1.3,0.2-2.6,0.2-3.9c0-0.8,0.3-1.1,1.1-0.9
      c1.6,0.3,3.1,0.4,4.7,0.8c1,0.2,1.5-0.2,1.9-1c1.4-2.8,3-5.5,4.4-8.3c0.4-0.7,0.9-1,1.7-1c1.5,0.1,3.1,0,4.6,0.1
      c0.6,0,1.2,0.4,1.6,0.8c2,2.1,3.9,4.3,5.8,6.5c0.5,0.6,0.8,1.4,1,2.2c0.2,0.6,0.2,1.2,0.4,1.8c0.2,0.9,0.8,1.4,1.7,1.3
      c0.7-0.1,0.9,0.1,1.1,0.7c0.1,0.4,0.6,0.8,1.1,0.9c0.5,0.2,1.1,0.1,1.7,0.3c0.7,0.2,1.5,0.4,1.9,0.8c1.5,1.9,3.6,2.8,5.7,3.7
      c5,2.2,10.1,4.2,15,6.5c1.8,0.8,3.5,2.2,4.9,3.6c1.4,1.5,2.9,1.9,4.8,2.1c4.8,0.4,9.7,0.9,14.5,1.3c1,0.1,2,0.1,2.9,0.3
      c0.4,0.1,1,0.5,1.1,0.8c0.6,2.1,1.1,4.2,1.6,6.4c0.1,0.6,0,1.3-0.1,2c-0.6,5-1.3,10.1-2,15.1c-0.2,1.5,0.3,2.6,1.4,3.7
      c3.1,3,6.2,6.2,9.3,9.2c0.9,0.9,1,1.7,0.5,2.8c-1.2,2.7-2.3,5.5-3.5,8.2c-0.5,1.2-0.6,2.4,0.1,3.6c0.4,0.6,0.2,1.1-0.4,1.5
      c-6.2,4.6-12.5,9.3-18.7,13.9c-0.2,0.1-0.4,0.3-0.6,0.4c-0.9,0.4-1.3,0.2-1.3-0.8c0-1.4,0.2-2.8,0.3-4.2c0.1-1.8,0.3-3.6,0.4-5.4
      C491.5,698.2,491.5,697.9,491.4,697.3z"/>
    <path class="region" transform="translate(0.5, -0.4235)" d="M514.2,558.3c1.2,1.6,1.1,3.1-0.2,4.2c-0.6,0.5-1.2,0.9-1.8,1.3c-1.2,0.7-2,1.7-2.6,3.1
      c-0.6,1.4-1.8,2.4-2.8,3.6c-1.3,1.6-2.6,3.2-4,4.8c-0.7,0.7-1.5,1.4-2.3,1.9c-1.2,0.7-2,1.6-2.6,2.8c-1.5,2.7-3.2,5.3-4.9,7.9
      c-0.6,0.9-1.3,1-2.3,0.6c-0.3-0.2-0.7-0.3-1-0.5c-0.9-0.5-1.6-0.2-2.1,0.7c-0.2,0.3-0.4,0.7-0.5,1c-0.3,0.7-0.8,1.1-1.6,1
      c-2.8-0.3-5.6-0.5-8.4-0.8c-1.4-0.1-1.9,0.2-2,1.6c0,0.4,0,0.8,0,1.1c-0.1,1.4-0.4,1.6-1.7,1.6c-0.3,0-0.5-0.1-0.8,0
      c-0.5,0.2-1.2,0.3-1.3,0.6c-0.2,0.3,0.2,0.9,0.4,1.4c0.1,0.2,0.3,0.3,0.3,0.4c0.1,0.3,0.2,0.5,0.2,0.8c-0.3,0.1-0.5,0.2-0.8,0.2
      c-0.5,0-1.1-0.1-1.6,0c-1.3,0.1-1.7,0.8-1.2,2c0.5,1.3-0.7,3-2,2.9c-0.3,0-0.6-0.4-0.8-0.6c-0.9-1.3-1.7-2.7-2.7-4
      c-0.7-0.8-1.5-1.6-2.4-2.2c-1.2-0.8-2.5-1.4-3.8-2.1c-0.8-0.4-1.3-0.9-1.5-1.9c-0.1-0.4-0.2-0.8-0.3-1.2c-0.5-1.8-0.5-1.8-2.2-1.3
      c-0.3,0.1-0.7,0-0.9-0.2c-1.7-1.3-3.1-2.7-3-5.2c0.1-1.8-0.2-3.6-0.3-5.4c-0.2-1.5,0-2.9,0.9-4.2c0.4-0.5,0.7-1.1,1-1.6
      c0.7-1.2,1.6-1.9,3-2.1c1.8-0.4,2.1-0.9,1.2-2.6c-1.1-2.2-2.4-4.3-3.5-6.6c-0.6-1.2-0.9-2.5-1.3-3.7c-0.2-0.9-0.8-1.3-1.5-1.6
      c-0.4-0.2-0.7-0.6-1.1-1c0.4-0.3,0.8-0.6,1.2-0.8c0.6-0.3,1.3-0.6,2-0.8c-0.4-0.7-0.7-1.3-1.2-2c-0.7-1.1-1.5-2.1-2.4-3.1
      c-0.1-0.2-0.5-0.4-0.7-0.3c-1,0.4-1.2-0.2-1.4-0.9c-0.1-0.3-0.1-0.5-0.2-0.8c-0.3-1.5-0.7-1.8-2.2-2.1c-0.5-0.1-1-0.5-1.5-0.8
      c-0.9-0.6-1.7-1.5-2.7-1.9c-2-1-3.8-2.1-5.2-3.8c-0.7-0.9-1.6-1.3-2.7-1.1c-0.2,0-0.4,0-0.6,0c-0.5-0.2-1-0.4-1.5-0.5
      c0.2-0.4,0.4-0.8,0.7-1.2c0.5-0.7,0.4-1.3-0.5-1.7c-0.9-0.4-1.8-0.6-2.7-0.9c-0.5-0.2-1-0.5-1.6-0.9c0.4-0.3,0.6-0.5,0.8-0.6
      c1.4-0.8,2.7-1.6,4.1-2.3c0.4-0.2,1-0.4,1.4-0.3c0.9,0.1,1.6,0,2.3-0.6c0.9-0.7,1.8-1.2,2.8-1.7c0.8-0.4,1.2-1,0.8-1.8
      c-0.4-1-0.9-1.9-1.5-2.8c-1.2-1.8-0.8-3.8,1-5.1c0.7-0.5,1.3-1.4,1.7-2.1c0.5-0.8,1-1,1.9-0.7c0.7,0.3,1.6,0.1,2.4,0.2
      c0.8,0.1,1.6,0.1,2.4,0.4c2.8,0.9,4.5,0.1,5.3-2.8c0.2-0.9-0.3-1.1-1-1.3c-0.8-0.3-1.7-0.7-2.5-0.9c-0.6-0.2-1.2-0.3-1.7-0.5
      c-1.4-0.4-2.8-0.8-4.1-1.4c-0.4-0.2-0.8-0.9-0.8-1.4c0-0.3,0.8-0.6,1.2-0.8c0.7-0.3,1.4-0.5,2-1c0.3-0.2,0.5-0.9,0.4-1.3
      c-0.1-0.3-0.7-0.6-1.2-0.6c-1.5,0-2.8-0.2-4.1-0.9c-0.8-0.4-0.8-0.8-0.2-1.3c0.4-0.3,0.7-0.6,1-0.9c0.8-0.6,1.7-1,2.3-1.8
      c0.5-0.7,0.6-1.7,1-2.8c0.3,0.2,0.5,0.3,0.6,0.5c1.1,1.6,1.3,1.7,3.1,1c0.3-0.1,0.8,0.1,1,0.3c1.4,1.3,1.9,1.2,2.8-0.6
      c0.1-0.3,0.7-0.7,1-0.6c1.2,0,2.4,0.2,2.7,1.7c0.1,0.4,0.8,0.9,1.2,0.9c0.4,0,1.1-0.6,1.1-1.1c0.2-1.9,1.3-2.2,2.9-2.2
      c1.1,0,2-0.3,2.7-1.2c0.4-0.5,0.8-0.8,1.4-0.2c0.8,0.8,1.8,0.7,2.7,0.2c1.1-0.7,2.2-0.9,3.5-0.3c1.2,0.6,2.2,0.2,3-0.9
      c0.8-1.3,1.9-1.8,3.4-1.7c1,0,2-0.4,3-0.5c0.7,0,1.4,0.2,2.1,0.5c1.1,0.5,2.1,1.3,3.3,1.7c1.5,0.6,2.3-0.2,1.9-1.8
      c-0.2-0.9-0.6-1.7-0.8-2.6c-0.3-1,0-1.7,1.1-1.8c0.9-0.1,1.8-0.4,2.6-0.1c2.3,0.7,2.3,0.7,3.7-1.3c0.2,0.5,0.3,0.8,0.4,1.2
      c0.4,1.8,0.8,3.6,1.1,5.4c0.2,1.2,0.7,2.2,1.7,2.9c1,0.7,0.9,1.1-0.2,1.7c-0.9,0.5-1.8,1-2.6,1.6c-0.9,0.7-0.9,1.5-0.1,2.4
      c0.3,0.4,0.7,0.8,1,1.2c0.6,0.9,0.6,1.7-0.2,2.5c-1.1,1.1-1.2,2.2-0.4,3.5c0.7,1.2,1.6,2.3,1.6,3.8c0,0.4,0.6,0.8,0.9,1.3
      c0.3,0.6,0.7,1.2,0.6,1.8c0,0.3-1,0.4-1.6,0.7c-0.6,0.2-1.1,0.5-1.6,0.8c0.3,0.5,0.4,1.2,0.9,1.5c1.8,1.5,1.8,1.9-0.3,2.5
      c-1.2,0.4-1.7,1.2-1.6,2.5c0.1,2.2,0.1,4.4,0,6.6c-0.1,1.5-0.8,2.8-1.9,3.9c-0.6,0.5-1,1.2-1.6,1.6c-0.8,0.7-1.7,1.2-2.5,1.8
      c-0.4,0.3-1,0.4-1.4,0.7c-1,0.6-1.1,1.3-0.5,2.3c1,1.6,0.7,3.7-0.6,5.1c-0.3,0.4-0.4,1.1-0.3,1.7c0,0.4,0.4,0.7,0.6,1
      c1.5,1.6,2.2,3.4,1.6,5.7c-0.2,0.6,0.2,1.8,0.8,2.2c0.4,0.3,1.5,0.1,2.1-0.2c1.9-0.9,1.9-0.9,3.3,0.6c0.7,0.8,1.6,1.2,2.7,1.4
      c0.9,0.1,2,0.6,2.7,1.3c1.4,1.3,2.9,1.8,4.7,1.6c0.6-0.1,1.3,0.1,1.9,0.3c0.7,0.3,0.9,0.8,0.2,1.3c-0.1,0-0.1,0.1-0.2,0.1
      c-0.7,0.6-1.4,1.1-1,2.2c0.3,0.9,1.4,1.5,2.6,1.2c1.8-0.4,3.6-1,5.4-1.5c0.4-0.1,0.9-0.3,1.3-0.4c1.5-0.2,2.3-0.9,2.6-2.4
      C513.9,559.1,514.1,558.8,514.2,558.3z"/>
    <path class="region" transform="translate(1.6, -1)" d="M334.8,645.6c-1.1,0-2.1,0-3.2,0c-1.6-0.1-2.9,0.4-3.9,1.8c-1.9,2.4-3.8,4.8-5.8,7.2c-0.6,0.7-0.7,1.4,0,2.1
      c0.2,0.2,0.3,0.4,0.5,0.6c0.8,1,0.9,1.1,1.8,0.1c1.7-2,3.3-4,4.9-6c0.8-1.1,1.7-1.8,3.2-1.7c0.8,0,1.7,0,2.5-0.3
      c1.2-0.5,2.3-0.2,3.3,0.4c0.8,0.4,1.6,1,2.4,0.3c0.9-0.7,0.7-1.7,0.3-2.6c-0.4-1.1-0.9-2.2-1.5-3.1c-0.6-1.1-1.1-2.1-0.7-3.4
      c0.4-1.3-0.4-2-1.8-1.5c-0.8,0.3-1.5,0.7-2.2,1.1c-1.1,0.5-2.3,0.6-3.5,0.2c-0.7-0.2-1.4-0.4-2.1-0.6c-1.1-0.3-2-0.8-2.4-2
      c-0.1-0.4-0.3-0.9-0.6-1.2c-1.2-1.3-1.1-2.5-0.2-3.9c1-1.4,1.9-2.9,2.8-4.4c0.4-0.6,0.8-0.8,1.4-0.4c2.8,1.6,5,0.8,6.9-1.6
      c0.2-0.2,0.4-0.4,0.6-0.6c1.3-1.5,2.9-2,4.8-1.8c2.8,0.4,5.6,0.7,8.4,1c1.4,0.2,2.7,0.2,4-0.6c2.4-1.4,4.6-0.7,5.9,1.8
      c0.2,0.4,0.4,0.8,0.5,1.3c0.2,1,0.7,1.6,1.7,1.9c0.6,0.2,1.1,0.8,1.5,1.3c1,1.2,2,2.1,3.7,2.1c0.7,0,0.9,0.5,1,1.1
      c1.1,4.9,0.7,9.7,0.4,14.6c0,0.4-0.6,0.9-1.1,1c-2.2,0.5-4.5,1-6.7,1.4c-0.9,0.2-1.3,0.6-1.4,1.5c-1.5,10.9-3.1,21.8-4.7,32.6
      c-1.5,10.1-2.9,20.3-4.3,30.4c-0.1,1-0.5,1.4-1.5,1.5c-1.2,0.1-2.5,0.3-3.7,0.6c-1.1,0.2-1.9-0.1-2.4-1.1c-0.8-1.7-1.8-3.3-2.4-5.1
      c-0.8-2.2-1.3-4.6-2-6.8c-0.4-1-0.9-2.1-1.8-2.8c-2.7-2.3-5.5-4.5-8.5-6.5c-1.1-0.7-2.8-0.9-4.1-0.8c-3.8,0.4-7.7,0.7-11.4,1.7
      c-2.2,0.6-4.2,2.2-6.2,3.3c-0.6,0.3-1.2,0.8-1.8,1.2c0-1.6-0.1-3,0.1-4.5c0.1-0.4,0.7-1,1.2-1.2c2.4-1.1,3.3-2.9,3.2-5.5
      c0-1,0.2-2,0.5-3c0.7-2.3-1-4.7-3.4-4.9c-1.8-0.2-3.6-0.5-5.4-0.9c-0.4-0.1-0.9-0.6-1-1.1c-0.3-1-0.6-2-0.6-3
      c-0.1-1.2-0.6-1.9-1.6-2.1c-0.9-0.2-1.8-0.5-2.6-0.5c-1.1,0-1.2-0.5-0.9-1.4c0.3-0.9,0.6-1.8,1-2.6c0.7-1.5,0.5-2.8-0.2-4.2
      c-0.6-1.1-1.1-2.3-1.8-3.4c-1.3-2.2-1.8-4.6-1.8-7.1c0-2.3-0.4-2.8-2.5-3.6c-0.7-0.2-1.4-0.4-2-0.7c-1.6-0.6-2.4-2.9-1.6-4.4
      c0.6-1.1,1.2-1.2,2-0.4c1.1,1,2.2,1.3,3.6,1c0.5-0.1,1.3,0.2,1.7,0.6c2,2.1,4.5,3.2,7.4,3.6c0.8,0.1,1.6,0.1,2-0.8
      c0.4-0.9-0.2-1.5-1-1.9c-0.9-0.5-1.4-1.2-1.9-2.1c-0.5-1.1-1.4-1.9-2.1-2.9c-0.8-1-0.7-1.4,0.5-1.8c0.1,0,0.1-0.1,0.2-0.1
      c2-0.1,3-1.3,3.8-3.1c0.3-0.8,1.8-1.2,2.9-1.4c1-0.2,1.8-0.5,2.2-1.5c0.3-0.6,0.7-0.7,1.3-0.3c0.6,0.4,1.2,0.9,1.8,1.3
      c1.3,0.8,2.6,1.8,4.1,2.3c3.4,1.1,6.6,2.9,10.3,3.3c3,0.4,6,1.3,9,1.9c0.4,0.1,0.8,0.4,1.3,0.5C334.9,645.3,334.9,645.4,334.8,645.6
      z"/>
    <path class="region" transform="translate(2, 0)" d="M353.9,565.5c-1.1,0-1.7,0-2.4,0c-1.8-0.2-3.7-0.5-5.5-0.5c-1.6-0.1-2,0.4-2.1,2c-0.1,0.8-0.3,1.5-0.4,2.3
      c-0.2,1-0.7,1.6-1.8,1.7c-0.5,0-1,0.6-1.4,1c-1.1,1.5-2,1.8-3.6,1c-2.8-1.4-3.2-1.2-4.1,1.8c-0.5,1.7-1.2,3.2-2.8,4.2
      c-0.5,0.3-0.9,1-1.2,1.6c-0.3,0.7-0.8,1.1-1.5,0.9c-0.9-0.2-1.9-0.5-2.7-1c-2.3-1.5-4.5-3.1-6.8-4.7c-0.9-0.6-1.8-0.9-2.9-0.6
      c-1.5,0.5-3,0.9-4.5,1.4c-2.1,0.6-4.1,1.2-6.1,1.9c-0.9,0.3-1.7,0.7-2.6,1.2c-0.9,0.5-1.7,1-2.5,1.5c-2.7,1.8-5.5,2.2-8.6,1.4
      c-0.4-0.1-0.9,0-1.2,0.2c-0.9,0.8-1.7,0.5-2.6,0.1c-3.2-1.6-6.3-3.2-9.6-4.6c-3.9-1.8-7.9-3.4-11.8-5.1c-0.8-0.3-1.3-0.7-1.7-1.5
      c-0.4-0.8-1.1-1.4-1.8-1.9c-1.1-0.8-2.3-1.5-3.4-2.2c-0.6-0.4-0.7-0.8-0.4-1.4c1.2-1.8,2.3-3.7,3.5-5.5c0.3-0.5,0.9-0.8,1.5-1.2
      c1.2-0.8,2.4-1.5,3.4-2.5c1.5-1.4,1.5-3.3,0.1-4.9c-0.6-0.7-0.8-1.4-0.5-2.3c0.3-1,0.6-1.9,0.8-2.9c0.4-2.3,1.9-3.7,4-4.3
      c2.5-0.7,3.4-2.5,4.1-4.7c0.5-1.5,1.3-2.3,2.9-2.4c0.4,0,0.9,0.2,1.1,0.5c1.5,2.2,2.8,4.6,3,7.3c0.2,2.1,1.4,3.6,2.8,4.8
      c0.4,0.3,1.3,0.5,1.8,0.3c1.7-0.6,3.3-1.4,4.9-2.3c0.7-0.4,0.9-1.1,0.4-1.8c-1.3-2.1-1.2-4.3-0.9-6.5c0.1-0.7,0.2-1.5,0.3-2.2
      c0.1-0.1,0.2-0.1,0.3-0.1c1.9,0.8,3.5,0.1,5-1.2c1-0.8,2-1.4,3.3-1.4c1,0,1.4-0.6,1.5-1.6c0.1-0.9,0.5-1.8,0.9-2.6
      c0.4-0.7,1-0.7,1.5,0c0.2,0.2,0.4,0.5,0.6,0.6c1.1,0.9,2,0.8,2.9-0.3c0.1-0.2,0.3-0.4,0.4-0.6c0.6-0.9,1.3-1.3,2.5-1.1
      c1.7,0.4,2.3,0,3.1-1.5c0.3-0.6,0.9-1,1.3-1.5c0.4-0.5,0.8-1,1.1-1.5c0.3-0.4,0.4-0.9,0.7-1.5c0.3,0.2,0.5,0.3,0.6,0.5
      c0.6,0.7,1.2,0.5,1.7-0.1c0.1-0.1,0.1-0.2,0.2-0.3c1.1-1.7,1.1-1.7,3-0.9c1,0.4,1.9,1,2.8,1.5c1.1,0.7,1.1,0.9,0,1.6
      c-0.4,0.2-0.8,0.4-1,0.7c-0.2,0.2-0.3,0.6-0.2,0.9c0.1,0.2,0.5,0.4,0.7,0.4c0.4,0,0.8-0.1,1.1-0.1c1,0.1,2.1,0.1,3,0.4
      c1.6,0.6,2.1,0.4,2.2-1.4c0-0.3,0.1-0.6,0.2-1.1c0.6,0.3,1.1,0.5,1.6,0.8c1.4,0.8,2,0.8,3.2-0.4c0.9-0.8,1.1-0.8,1.5,0.3
      c0.3,0.8,0.7,1.6,0.8,2.4c0.4,2.4,2.7,2.8,4.9,2.6c1.4-0.1,2.9-0.1,4.3,0.2c1.3,0.3,1.9,1.1,1.8,2.5c-0.1,1.4,0.4,2.3,1.4,3.1
      c0.6,0.4,1.1,0.9,1.7,1.3c1.5,1.1,2.9,2.1,3.6,3.9c0.3,0.6,0.9,1.1,1.3,1.7c0.9,1.2,1,1.9,0.2,3.2c-0.7,1.2-1.2,2.3-0.1,3.5
      c0.2,0.3,0.1,0.9,0,1.4c-0.5,1.6-1.1,3.3-1.7,4.9c-0.4,1.1-0.3,2.1,0.6,2.9c0.7,0.7,0.7,1.4,0.2,2.1c-0.6,0.8-1.1,1.6-1.8,2.3
      C353.4,563.2,352.7,564,353.9,565.5z"/>
    <path class="region" d="M521.9,472.4c0.5,0.4,0.8,0.7,1.2,0.9c0.4,0.3,0.8,0.7,1.3,0.9c1,0.5,1.5,0.1,1.5-1c0-0.4,0-0.7-0.1-1.2
      c2.8,0.1,5.5-0.8,8,1.2c0.9,0.7,1.9,1.2,2.9,1.7c1.6,0.8,2.7,0.6,3.9-0.8c0.2-0.3,0.5-0.6,0.7-0.9c0.9-1.2,1.6-1.2,2.4,0
      c1,1.7,1.8,3.5,1.3,5.7c-0.3,1.4,0.6,2.7,2.4,3.3c1.4,0.5,1.3,0.5,0.5,1.8c-0.2,0.4-0.3,0.9-0.2,1.4c0.1,1,0.4,2,0.5,3
      c0.1,0.7-0.2,1.1-0.9,1.3c-0.5,0.1-1.3,0.5-1.4,0.9c-0.1,0.4,0.3,1.1,0.6,1.6c0.3,0.4,0.7,0.7,1,1c1.1,1,1.6,1,2.7,0
      c1.2-1,1.4-1,2.5,0c1.4,1.3,2,1.1,2.7-0.7c0.2-0.6,0.6-1.2,0.9-1.8c0.5,0.5,1,0.9,1.5,1.4c0.1,0.1,0.1,0.2,0.2,0.3
      c0.5,0.3,0.9,0.5,1.4,0.8c0.2-0.5,0.4-1,0.5-1.6c0-0.2,0-0.3,0-0.5c0.1,0,0.2,0,0.3-0.1c0.1,0.4,0.3,0.9,0.3,1.3c0,1-0.3,2-0.2,2.9
      c0,0.6,0.3,1.5,0.8,1.8c0.8,0.4,1.1-0.5,1.4-1.1c0-0.1,0.1-0.2,0.2-0.2c0.1,0,0.2,0,0.2,0c0.5,0.2,0.9,0.3,1.4,0.5
      c0.1-0.5,0.4-1,0.4-1.6c-0.2-2.4-0.2-2.5,2.3-2.2c0.6,0.1,1.2,0.6,1.7,1c0.5,0.5,0.8,1.2,1.3,1.7c1.1,1.2,2.6,1.2,3.7-0.1
      c0.5-0.6,0.9-1.2,1.3-1.9c0.2-0.3,0.4-0.6,0.7-0.9c0.7,2.5,0.2,3.6-1.8,4.6c-1.5,0.7-2.4,2-2.9,3.6c-0.3,1,0.3,1.6,0.9,2.2
      c1.2,1.2,2.2,2.6,3.3,4c0.1,0.2-0.2,0.7-0.3,1c-0.2,0.5-0.5,1-0.7,1.5c0.5,0.2,1,0.5,1.5,0.7c0.2,0.1,0.5,0,0.8,0
      c1.1,0,1.4,0.3,1.1,1.4c-0.2,0.8-0.4,1.5-0.7,2.3c-0.6,1.3-0.2,2.4,0.8,3.4c0.8,0.8,1.7,1.5,2.5,2.3c0.2,0.2,0.3,0.6,0.5,1
      c-0.3,0.1-0.7,0.3-1,0.3c-1.4,0.1-2.6-0.3-3.9-1c-1.2-0.8-2.6-1.4-3.9-2c-1.5-0.6-2.2-0.3-3,1.1c-0.8,1.4-1.4,2.9-2.2,4.4
      c-0.8,1.5-1.2,1.5-2.2,0.2c-0.8-1.2-1.8-1.4-3.1-1c-0.9,0.3-1.8,0.5-2.7,0.7c-0.9,0.2-1.6,0-2.2-0.7c-0.6-0.7-1.3-1.5-2-2.1
      c-1.7-1.3-3.2-0.9-4.1,1.1c-0.5,1.2-0.9,2.5-1.5,3.8c-0.7,1.8-1.4,2-2.9,1c-1.6-1.1-3-2.4-4.5-3.8c-1.1-1-1.2-0.9-2.2,0
      c-0.7,0.7-1.5,1.1-2.4,1.6c-0.7,0.4-1.5,0.6-2.2,1c-1.7,0.9-2.5,0.8-3.8-0.6c-0.3-0.3-0.6-0.7-0.9-1c-0.7-1.1-1.6-1.7-3-1.8
      c-0.8,0-1.6-0.8-2.2-1.4c-2-1.9-2.5-1.9-4.7-0.2c-1.7,1.3-3.3,2.8-5.4,3.5c-0.5,0.2-0.8,0.8-1.1,1.3c-0.2,0.4-0.2,0.9-0.4,1.3
      c-0.3,1.2-0.6,1.4-1.8,1c-0.9-0.3-1.7-0.8-2.6-1.1c-1.6-0.5-2.2-0.1-2.7,1.4c-0.6,2-0.6,2-2.6,2c-1.9,0-3.7,0.1-5.2-1.3
      c-0.5-0.4-1.4-0.4-2.1-0.6c-0.6-0.1-1.2-0.2-1.8-0.4c-1.5-0.5-2.6-1.4-2.3-3.2c0-0.2-0.1-0.5-0.1-0.8c-0.4-2.5-0.2-2.7,2-3.7
      c1.5-0.6,1.6-1.5,0.4-2.6c-0.5-0.4-0.9-1-1.3-1.5c0.6-0.1,1.2-0.3,1.8-0.4c1.3-0.3,1.9-1.9,0.9-3c-1.5-1.7-1.5-4.2-3-6
      c-0.3-0.4,0-1.5,0.3-2c1.2-1.7,1.2-2.6-0.1-4.2c-1.3-1.4-1.2-1.9,0.6-2.8c0.7-0.4,1.4-0.7,2-1c0.9-0.6,1.1-1.5,0.2-2
      c-1.8-1.1-2-2.9-2.4-4.6c-0.2-1-0.4-1.9-0.6-2.9c-0.2-0.7,0.1-1,0.8-1c4.2-0.2,8.1-1.3,11.6-3.6c0.9-0.6,2.2-0.5,3.4-0.6
      c1.5-0.1,3.1,0.2,3.9-1.5c0.1-0.2,0.9-0.2,1.3-0.2c0.7,0,1.5,0.1,2.2,0c1.5-0.2,1.9-0.9,1.6-2.4c-0.3-1.4-0.3-1.4,1.1-1.3
      c1.4,0.1,2-0.3,2.4-1.7C521.6,473.3,521.7,473,521.9,472.4z"/>
    <path class="region" d="M584.7,538.6c-1.3,1-2.6,1.8-3.6,2.8c-1.4,1.4-2.9,1.6-4.7,1.4c-0.4-0.1-0.9-0.1-1.4-0.1
      c-0.5,0.1-0.9,0.2-1.3,0.4c0.1,0.5,0.2,1,0.5,1.4c0.6,0.9,1.3,1.7,1.9,2.5c0.3,0.4,0.4,0.8,0.8,1.5c-0.7-0.1-1.1-0.1-1.5-0.1
      c-1.2-0.1-1.8,0.3-1.7,1.5c0,1.1-0.4,1.6-1.5,1.7c-2,0.2-3.5,1.4-5,2.7c-0.4,0.4-0.7,1.1-0.9,1.7c-0.2,0.7-0.5,1-1.3,1
      c-1.6,0-1.8,0.3-1.8,1.8c0,1.6,0,1.6-1.7,1.8c-0.8,0.1-1.6,0.3-2.3,0.4c-0.8,0.1-1.3-0.2-1.2-1.1c0.1-1.1,0.3-2.2,0.5-3.2
      c0.3-1.2,0.1-1.7-1.1-2.2c-2.5-0.9-3.9-0.5-5.4,1.7c-1,1.5-1.9,3-3.5,3.9c-0.5,0.3-0.8,1.2-0.8,1.8c-0.2,2.8-2.3,3.8-4.3,5.2
      c0-0.3-0.1-0.5,0-0.6c0.7-1.7,0.6-1.9-1-2.7c-1.2-0.6-2.3-1.3-3.4-2c-1.7-1-2.4-0.9-3.7,0.6c-0.4,0.4-0.7,0.9-1.1,1.3
      c-0.6,0.7-1.3,0.8-2.1,0.1c-0.1-0.1-0.2-0.2-0.3-0.3c-1.6-1.3-2.2-1.1-2.8,0.9c-0.4,1.3-1.7,1.2-2.7,1.4c-0.8,0.2-1.7,0-2.4-0.2
      c-0.2-0.1-0.2-1.1-0.1-1.7c0.2-1.4,0.6-2.8,0.9-4.2c0.4-2.6-0.9-3.9-3.4-3.6c-1.8,0.2-3.6,0.5-5.4,0.7c-1.3,0.2-2.1,0.7-2.3,2.1
      c-0.3,1.4-1,1.9-2.3,2.2c-1.9,0.4-3.7,1-5.6,1.5c-0.4,0.1-0.9,0.3-1.2,0.2c-0.5-0.2-1.1-0.5-1.4-0.9c-0.1-0.2,0.4-0.8,0.7-1.2
      c0.3-0.5,1.1-1.3,1-1.5c-0.4-0.6-1.1-1.2-1.8-1.4c-0.8-0.2-1.8,0-2.7-0.1c-0.7-0.1-1.5-0.3-2-0.7c-1.4-1.1-2.8-2.3-4.8-2.3
      c-0.6,0-1.3-0.8-1.8-1.3c-1.5-1.5-1.8-1.5-3.6-0.6c-0.5,0.3-1.2,0.3-1.8,0.5c-0.2-0.7-0.6-1.5-0.4-2.1c0.4-1.9,0.1-3.6-1.3-5
      c-0.4-0.4-0.7-0.8-0.9-1.3c-0.1-0.4,0-1.1,0.2-1.3c1.2-1.3,1.7-4.1,0.6-5.6c-0.6-0.9-0.4-1.5,0.5-1.7c2.8-0.6,4.3-2.9,5.9-4.8
      c0.8-0.9,1.1-2.3,1.4-3.6c0.3-1.3,0.4-1.4,1.6-0.9c0,0,0.1,0,0.1,0c3.6,0.3,6.6,3.2,10.5,2.5c1.5-0.3,2.1-0.4,2.5-1.9
      c0.6-1.9,1-2.1,2.8-1.3c0.8,0.4,1.6,0.7,2.4,1c0.9,0.3,1.5-0.1,1.9-1c0.1-0.2,0.2-0.5,0.2-0.8c0.2-1.4,0.8-2.2,2.2-2.7
      c1.2-0.5,2.3-1.4,3.4-2.2c0.2-0.2,0.5-0.4,0.7-0.6c2.2-1.8,2.4-1.7,4.4,0.2c0.8,0.8,1.7,1.4,3,1.4c0.5,0,1.2,0.6,1.6,1
      c0.7,0.6,1.2,1.4,1.9,2.1c0.9,0.9,2.1,1,3.3,0.5c1.3-0.5,2.5-0.9,3.7-1.5c0.6-0.3,1.2-0.8,1.6-1.3c0.5-0.5,0.8-0.5,1.4,0
      c1.6,1.4,3.3,2.8,5,4c1.4,0.9,2.4,0.6,3.1-1c0.6-1.3,1-2.7,1.5-4c0.8-2,2-2.3,3.6-0.7c0.4,0.4,0.8,0.8,1.1,1.3
      c0.9,1.3,2.1,1.6,3.5,1.2c0.9-0.3,1.8-0.4,2.6-0.7c0.9-0.3,1.5-0.1,2.1,0.6c1.8,2.2,2.5,2.1,3.8-0.5c0.6-1.3,1.2-2.6,1.9-3.9
      c0.5-1,1.3-1.3,2.3-0.9c1.1,0.5,2.2,0.9,3.2,1.6c1.5,1,3,1.5,4.8,1.4c1-0.1,1.3,0.3,1.4,1.3c0.2,2,0.5,4,0.8,5.9
      c0.2,1.8,0.2,3.5-0.5,5.2c-0.2,0.5-0.4,1.1-0.6,1.6c-0.4,1.4-0.1,2.1,1.2,2.7C583,538.1,583.8,538.3,584.7,538.6z"/>
    <path class="region" transform="translate(1.35, -0.5)" d="M263,581.6c-1.6-1.3-1.7-4.2-0.3-5.4c0.4-0.3,0.6-0.9,0.7-1.4c0.1-1.5,0.3-1.7,1.7-1.1c4.6,2,9.2,3.9,13.8,6
      c2.7,1.2,5.4,2.6,8,3.9c0.9,0.4,1.7,0.5,2.5-0.2c0.3-0.2,0.8-0.2,1.1-0.2c2.8,0.4,5.5,0.4,8.1-1.2c0.6-0.4,1.2-0.7,1.7-1.1
      c1.8-1.1,3.6-2,5.7-2.4c2.4-0.6,4.8-1.5,7.2-2.4c1.9-0.7,3.5-0.6,5.1,0.7c1.8,1.5,3.8,2.9,5.8,4.1c1,0.6,2.4,0.8,3.6,1.1
      c0.4,0.1,0.9-0.5,1.2-0.9c0.5-0.6,0.8-1.5,1.5-1.9c1.4-1,2.1-2.4,2.6-4c0.9-2.9,0.9-2.9,3.7-1.6c1.4,0.7,3.1,0.3,4-1.1
      c0.8-1.2,2.3-1.5,3.6-0.7c1.7,1.1,2.7,2.6,2.6,4.8c-0.1,0.9,0.1,1.9,0.2,2.8c0.2,1.3,1,2.2,2.1,2.8c0.8,0.5,1.7,0.9,2.5,1.2
      c1.1,0.5,1.6,0.2,2.1-0.9c0.3-0.6,0.2-1.6,1.3-1.4c1,0.2,1.6,1.4,1.5,2.4c-0.4,2.9-0.8,5.8-1,8.7c-0.1,0.7,0.3,1.5,0.6,2.1
      c0.5,1,0.8,2,0.6,3.2c-0.8,4.5-1.6,9-2.3,13.6c-0.1,1,0,2.2,0.5,3c1.2,2.1,2.6,4.1,4.1,6.1c0.5,0.7,1.4,1.2,2.2,1.7
      c1.4,0.8,3,1.3,4.4,2.1c0.6,0.3,1.2,1,1.4,1.6c0.5,1.8,0.9,3.7,1.3,5.5c0.2,1-0.2,1.5-1.1,1.1c-0.8-0.3-1.5-0.9-2.2-1.5
      c-0.9-0.6-1.7-1.3-2.5-2c-0.4-0.4-0.8-0.8-0.9-1.3c-0.5-1.8-1.6-2.9-3.1-3.9c-1.1-0.7-2.2-0.8-3.2-0.1c-2.2,1.6-4.6,1.2-6.9,0.9
      c-2.5-0.3-5.1-0.7-7.6-0.8c-1,0-2,0.5-2.9,1c-1.1,0.7-2,1.8-2.9,2.6c-1.4,1.3-3.5,1.3-4.9,0.1c-0.2-0.1-0.2-0.7-0.1-0.8
      c1.3-1.5,1.1-3.2,0.8-4.8c-0.4-2-0.9-3.9-1.3-5.8c-0.2-0.9-0.1-1.8-0.1-2.7c0-1.1-0.5-1.9-1.5-2.4c-2.8-1.2-5.6-2.4-8.6-0.4
      c-0.3,0.2-0.9,0-1.2-0.2c-2.2-1.7-4.4-3.5-6.7-5.1c-2.4-1.8-5.1-2.4-7.9-1.4c-4,1.3-8.2,2.2-11.7,4.8c-0.6,0.4-1.2,0.7-1.9,1.1
      c-1.4,0.8-2.9,0.9-4.4,0.2c-0.4-0.2-0.8-0.3-1.1-0.5c-2.1-1-2.8-0.7-3.3,1.6c0,0.1-0.1,0.2-0.1,0.3c-2-1.5-4.1-2.8-5.9-4.4
      c-0.8-0.7-1.1-1.8-1.6-2.8c-0.1-0.3,0.2-0.9,0.5-1.2c0.1-0.1,0.7,0.1,1,0.2c0.7,0.4,1.3,1,2,1.5c0.4,0.3,0.8,0.5,1.3,0.7
      c1.9,0.5,3.1-0.6,2.5-2.4c-0.3-1.1-0.9-2.3-1.6-3.2c-1.4-1.8-1.7-3.8-1.9-5.9c-0.1-1.6-0.4-3-1.5-4.3c-0.9-1-1.3-2.6-1.6-3.9
      c-0.6-2.4-1.4-3.3-3.9-3.6c-0.5,0-1,0-1.5,0c-1.2,0-2.1-0.4-2.7-1.4c-0.1-0.1-0.1-0.2-0.2-0.3c-0.6-0.4-1.2-0.8-1.8-1.2
      c-0.3,0.6-0.5,1.2-0.8,1.8C263.1,581,263.1,581.2,263,581.6z"/>
  </g>

  <g id="on-area" transform="translate(119, -54)">
    <g class="region-wrap">
      <path class="region highlight yellow" transform="translate(-0.95, 0.75)" d="M200,92.9c0.3-0.2,0.6-0.3,0.8-0.4c1.2-0.8,1.2-1,0.4-2.1c-0.4-0.5-1-1.1-1-1.7c0-0.4,0.7-0.9,1.1-1.4
        c1.9-2.3,4-2.6,6.5-0.9c0.6,0.4,1.2,0.8,1.9,1c1,0.3,1.5-0.2,1.3-1.2c0-0.1-0.1-0.3-0.1-0.4c-0.5-1.7-0.5-1.7,1.2-2.3
        c0.4-0.1,0.8-0.5,0.9-0.8c0.5-1.5,1.4-2.2,3-2.6c1.7-0.5,3.2-1.9,4.8-3c0.3-0.2,0.3-0.8,0.2-1.3c-0.1-0.7,0.2-1,0.9-1
        c3.4,0.3,4.9-1.9,6.2-4.5c0.4-0.9,0.8-1.2,1.8-1c1.4,0.3,2.6-0.1,3.6-1.1c0.3-0.3,0.7-0.6,1-0.9c0.1,0.1,0.2,0.1,0.4,0.2
        c-0.5,1.3-0.9,2.5-1.4,3.8c-0.1,0.2-0.6,0.3-0.9,0.3c-0.5,0-1-0.2-1.5-0.1c-0.5,0.1-1.3,0.2-1.5,0.5c-0.2,0.4-0.2,1.3,0.1,1.6
        c0.9,1.2,1.9,2.4,3.1,3.2c3.9,2.5,7.9,4.9,11.9,7.2c1.5,0.9,2.8,2,3.8,3.4c6.2,8.5,12.5,17.1,18.8,25.6c1,1.3,0.9,1.4-0.1,2.6
        c-1.5,1.8-3,3.6-4.5,5.3c-0.7,0.8-1.6,1.4-2.5,2.1c-0.8,0.7-1.8,1.3-2.5,2.1c-1.3,1.3-1.3,2.4,0.1,3.7c0.9,0.8,1.9,1.5,2.9,2.3
        c0.7,0.5,1.5,1,2.2,1.6c0.9,0.7,1.5,1.6,1.8,2.7c0.3,1.1,0.9,2.2,1.2,3.3c0.1,0.5,0.1,1.1-0.1,1.5c-0.9,1.4-1.9,2.8-2.9,4.2
        c-0.5,0.7-1.1,0.9-1.8,0.5c-1.6-0.8-3.1-1.5-4.7-2.2c-0.8-0.4-1.8-0.5-2.6-0.8c-0.3-0.1-0.6-0.5-0.6-0.7c0-0.6,0-1.3,0.1-1.9
        c0.1-0.9-0.1-1.3-1-1.4c-2.2,0-4.1-0.8-5.9-2c-0.3-0.2-0.6-0.4-1-0.5c-1.3-0.6-2.1-0.2-2.5,1.2c-0.3,1.4-0.5,2.8-0.9,4.2
        c-0.4,1.6-0.6,1.8-2.3,1.8c-1.3,0-2.3,0.4-3.2,1.3c-1.6,1.5-3.5,2-5.7,1.7c-0.8-0.1-1.8,0-2.6,0.3c-1.7,0.8-3.2,1.9-4.9,2.9
        c-0.4,0.2-0.8,0.4-1.3,0.6c-0.1-0.1-0.1-0.2-0.2-0.3c0.3-0.4,0.7-0.7,1-1.1c0.7-0.7,1-1.4,0.5-2.3c-0.6-1-1.2-2.1-1.8-3.1
        c-0.7-1-1.6-1.6-2.9-1.4c-1.1,0.1-1.5-0.6-1.9-1.4c-0.7-1.9-0.7-1.8-2.7-1.4c-0.9,0.2-1.8,0.4-2.8,0.5c-1.8,0.2-2.7-1.1-2.1-2.8
        c0.4-1.2,0.8-2.4,1.1-3.5c0.4-1.3,0.1-2.1-1.1-2.9c-1.1-0.7-2.3-1.3-3.5-2c0.1-0.2,0.2-0.4,0.4-0.6c1.5-1.1,3.1-2.2,4.6-3.3
        c0.3-0.2,0.5-0.5,0.7-0.8c-0.3-0.2-0.6-0.5-0.9-0.6c-0.9-0.3-1.8-0.5-2.7-0.9c-0.8-0.3-1.2-1-0.8-1.8c1.5-3.1,1.4-6.3,0.7-9.6
        c-0.3-1.7-0.3-3.5-0.7-5.2c-0.2-0.8-0.8-1.5-1.2-2.2c0,0-0.1-0.1-0.1-0.1c-2.2-1.6-3.8-3.5-2.1-6.4c0.1-0.2,0.1-0.5,0.2-0.8
        c0.2-1.3-0.2-1.8-1.5-1.9c-0.5,0-1,0-1.6-0.1C200.5,93.4,200.5,93.2,200,92.9z"/>
      <g transform="translate(211,80)">
        <image class="target" xmlns:xlink="http://www.w3.org/1999/xlink" xlink:href="/img/geo-target.png" width="44" height="54"></image>
        <image class="target-active" xmlns:xlink="http://www.w3.org/1999/xlink" xlink:href="/img/geo-target-active.png" width="44" height="54"></image>
      </g>
      <g class="text" transform="translate(147, 50) scale(0.45)">
        <use xlink:href="#text-bg" filter="url(#text-bg-shadow)"/>
        <use xlink:href="#text-bg" fill="rgb(255,255,255)" transform="translate(-6, -7) scale(1.03, 1.2)"/>
        <use xlink:href="#text-bg" fill="rgb(65,139,69)"/>
      </g>
      <text class="text" x="167" y="69">Павлодарская область</text>
    </g>

    <g class="region-wrap">
      <path class="region highlight yellow" transform="translate(-1.2, 0.5)" d="M360.1,130.4c-0.1,0.3-0.2,0.6-0.3,0.9c-0.6,1.4-0.3,2.4,1,3c1.3,0.6,2.3,1.5,3,2.8c0.8,1.5,1.9,2.3,3.8,1.8
        c0.6-0.2,1.3,0.2,1.9,0.3c0,0.2,0,0.3,0,0.5c-0.4,0.1-0.7,0.3-1.1,0.4c-1.1,0.2-2.3,0.4-3.4,0.7c-1.9,0.5-2.4,1.6-1.4,3.4
        c0.3,0.6,0.7,1.2,1.1,1.7c0.7,1.1,0.9,2.3,0.4,3.5c-0.7,1.8-1.5,3.4-3.5,4.2c-1.7,0.7-3.2,1.5-5,1.9c-1.4,0.3-2.2,1.3-2.5,2.6
        c-1.1,4.2-1.3,8.3,0.9,12.2c1,1.9,1.9,3.8,3,5.7c1,1.8,0.5,3.5,0,5.2c-0.1,0.2-0.7,0.5-1,0.4c-1.6-0.4-2.8,0.2-3.7,1.5
        c-0.8,1.1-1.6,2.1-2.4,3.2c-0.3,0.4-0.7,0.7-1.1,1.2c-0.2-0.3-0.4-0.4-0.4-0.6c-0.6-1.7-1.1-2-2.9-1.6c-2,0.4-4,0.9-6.1,1.3
        c-1.1,0.2-2.3,0.3-3.4,0.1c-2.5-0.4-4.9-0.9-7.3-1.4c-3.1-0.5-4,0.3-3.2,3.3c0.8,3.1,0,6.1-0.5,9c-0.3,2-0.9,4-1.5,6
        c-0.5,1.6-0.4,3.1-0.1,4.7c0.5,2.7-0.5,5.2-1.5,7.6c-0.3,0.8-0.8,0.4-1.1-0.1c-1.8-2.4-3.2-5-3.7-8c-0.5-2.9-2.6-4.3-5.1-5.2
        c-0.8-0.3-1.7-0.2-2.5-0.3c-1.6-0.2-3.2-0.4-4.8-0.7c-2.6-0.4-5.2-0.8-7.8-1.4c-1.4-0.3-2.8-0.9-4.1-1.5c-1.4-0.7-2.8-0.7-4.1-0.1
        c-1.4,0.6-2.7,1.2-4,1.9c-1.4,0.7-1.5,0.7-2.4-0.5c-0.6-0.8-1.3-1.6-1.9-2.4c-0.6-0.9-1.3-1.2-2.3-1c-0.6,0.1-1.1,0.1-1.7,0.2
        c-2.4,0.5-4.5,0-6.6-1.2c-0.7-0.4-1.6-0.8-2.3-1.1c-1.7-0.8-1.7-0.8-2.7,0.8c-0.5,0.7-0.9,1.1-1.8,0.6c-0.3-0.2-0.9,0.2-1.4,0.3
        c-0.6,0.2-1.1,0.7-1.7,0.8c-1.4,0.2-2.9,0.3-4.3,0.3c-1,0-1.5,0.4-1.9,1.2c-0.7,1.4-0.7,1.4-2.1,0.6c0,0-0.1,0-0.1-0.1
        c-0.7-0.8-2.5-0.6-2.2-2.2c0.2-1.1,0.8-2.2,1.1-3.3c0.2-0.8,0.3-1.7,0.5-2.5c0.3-1.9,0.6-3.9,1-5.8c0.1-0.6,0.6-1.2,1-1.8
        c0.9-1.3,0.8-1.7-0.4-2.7c-1.2-0.9-2.5-1.8-3.6-2.8c-1.6-1.3-1.6-2,0.2-3.2c0.2-0.1,0.3-0.2,0.5-0.3c2.9-1.8,3.2-3.2,1.4-6.1
        c-0.6-0.9-1.2-1.8-1.8-2.6c-0.6-0.8-0.5-1.5,0.3-2.1c0.5-0.4,1-0.9,1.5-1.3c2-2,1.2-5.1-1.4-6.1c-0.4-0.2-0.9-0.7-0.9-1.1
        c-0.2-1.9-0.4-3.9-0.5-5.8c0-0.4,0-1,0.2-1.3c1.2-1.7,2.5-3.4,3.9-5c0.6-0.7,1.3-0.8,2.1-0.3c1.8,0.9,3.6,1.8,5.4,2.6
        c1.7,0.7,2,0.6,3-0.9c0.9-1.3,1.8-2.6,2.7-3.9c0.5-0.7,0.6-1.3,0.3-2.1c-0.6-1.4-1-2.8-1.6-4.2c-0.3-0.6-0.7-1.3-1.2-1.7
        c-1.3-1.1-2.7-2-4-3c-0.6-0.5-1.2-1-1.8-1.6c-0.8-0.7-0.9-1.6-0.1-2.3c0.9-0.8,1.9-1.5,2.8-2.3c1-0.9,2-1.8,2.9-2.8
        c1.5-1.6,2.9-3.3,4.3-5c0.6-0.7,1-0.6,1.5,0.1c2.8,3.9,5.6,7.8,8.4,11.6c1.1,1.5,1.7,1.5,2.9,0.2c0.8-1,1.7-1.9,2.6-2.8
        c0.9-0.9,1.2-1.9,0.8-3.2c-0.1-0.3-0.2-0.7-0.3-1.1c1-0.6,2.9,0.5,2.7-1.8c1,0.3,1.9,0.6,2.7,1c0.4,0.2,0.6,0.8,0.7,1.2
        c0.2,0.7,0.1,1.5,0.3,2.2c0.3,1.1,1.2,1.3,2.1,0.5c0.3-0.2,0.5-0.6,0.8-0.8c0.2-0.3,0.5-0.5,0.9-1c0.3,0.7,0.4,1.2,0.6,1.7
        c0.3,0.7,0.6,1.5,1.1,2.2c0.9,1.2,2.2,1.4,3.3,0.3c1-1,2.1-1.3,3.4-0.8c1.4,0.5,2.5,0.1,3.8-0.5c0.7-0.4,1.6-0.5,2.4-0.6
        c1.2-0.1,2.1-0.7,2-2.1c0-1.7,0.7-2.4,2.3-2.7c0.7-0.1,1.2-0.8,1.9-1.2c0.6-0.3,1.2-0.7,1.8-0.7c1.6,0.2,3.3,0.5,4.9,0.9
        c1.1,0.2,1.9,0.8,2.3,1.8c0,0,0,0.1,0.1,0.1c2.6,2.7,4,6.4,7,8.9c0.7,0.6,1.1,0.7,1.6-0.2c0.7-1.4,1.3-1.5,2.3-0.2
        c0.9,1.2,2,1.7,3.4,1.4c1.5-0.3,1.8,0.1,1.5,1.5c-0.2,1.3,0.1,2.3,1.2,3c0.5,0.3,0.9,0.9,1.2,1.4c0.6,0.7,1,1.5,1.6,2.2
        c0.7,0.8,1.1,0.7,1.5-0.3c0.1-0.2,0.2-0.3,0.2-0.4c0.1,0,0.2,0,0.3,0c1.5,1.3,1.6,1.2,2.7-0.4c0.7-1.1,0.9-1.1,1.7,0
        c1.1,1.4,1.5,1.4,2.8,0.2c0.3-0.3,1-0.3,1.5-0.4c0.3,0,0.6,0.2,0.9,0.2c1.7,0.5,2.2,0,2.4-1.8c0.1-1.3,0.5-2.6,0.9-3.9
        c0.2-0.5,0.7-0.8,1.1-1.1C359.8,130.2,360,130.3,360.1,130.4z M329.5,165.3c-2.2,0.6-4.7,1.2-7.2,1.9c-0.3,0.1-0.7,0.6-0.6,0.8
        c0.1,0.4,0.4,0.8,0.8,1c2.3,1.1,4.7,2,7.3,2c1.3,0,2.6,0.5,3.9,0.9c1.3,0.5,2.5,1.3,3.8,1.7c1.9,0.7,2.7,0.3,3.8-1.4
        c0.3-0.4,0.5-0.8,0.8-1.3c1.2-2.1,1-2.6-1.4-3.1c-0.2,0-0.4-0.1-0.6-0.1c-2.5-0.6-5.1-1.3-7.6-1.9
        C331.7,165.7,330.8,165.6,329.5,165.3z"/>
      <g transform="translate(277,120)">
        <image class="target" xmlns:xlink="http://www.w3.org/1999/xlink" xlink:href="/img/geo-target.png" width="44" height="54"></image>
        <image class="target-active" xmlns:xlink="http://www.w3.org/1999/xlink" xlink:href="/img/geo-target-active.png" width="44" height="54"></image>
      </g>
      <g class="text" transform="translate(195, 87) scale(0.45)">
        <use xlink:href="#text-bg" filter="url(#text-bg-shadow)" transform="scale(1.2, 1)"/>
        <use xlink:href="#text-bg" fill="rgb(255,255,255)" transform="translate(-6, -7) scale(1.23, 1.2)"/>
        <use xlink:href="#text-bg" fill="rgb(65,139,69)" transform="scale(1.2, 1)"/>
      </g>
      <text class="text small" x="212" y="106">Восточно-Казахстанская область</text>
    </g>

    <g class="region-wrap">
      <path class="region highlight yellow" transform="translate(-0.3, 0.1)" d="M215.6,220c-2.5-0.5-3,1.2-3.2,3.1c-0.1,0.9-0.6,1.2-1.5,1.2c-7.8,0.3-15.6,0.6-23.4,0.9
        c-5.6,0.2-11.1,0.4-16.7,0.7c-7.6,0.3-15.1,0.6-22.7,0.9c-5.3,0.2-10.6,0.4-15.9,0.7c-1.1,0.1-1.8-0.2-1.9-1.4
        c-0.1-0.7-0.6-1.1-1.3-1.1c-5.2-0.5-10.4-0.9-15.6-1.4c-1.1-0.1-2.3-0.1-3.4-0.3c-0.7-0.1-1.6-0.4-2.1-0.9
        c-3.1-3.5-7.1-5.4-11.3-7.1c-3.5-1.5-7.1-2.9-10.7-4.3c-1.7-0.7-3.3-1.7-4.6-3.1c-0.6-0.6-1.7-0.8-2.6-1.1c-0.3-0.1-0.6,0.1-0.9-0.1
        c-0.4-0.2-0.9-0.4-1.1-0.8c-0.1-0.2,0.3-0.8,0.6-1c4.6-3,9.2-5.9,13.7-8.9c1.2-0.8,2.3-1.6,3.5-2.3c0.8-0.5,0.9-1,0.3-1.7
        c-0.8-1-1.4-2.1-2.2-3.2c-0.5-0.7-0.4-1.2,0.4-1.5c0.3-0.1,0.6-0.3,0.9-0.5c1.2-0.8,1.3-1.2,0.8-2.6c-0.4-1.1-0.3-1.4,1-1.4
        c0.5,0,1,0.1,1.5,0.1c1.2,0,1.6-0.7,1-1.7c-0.1-0.2-0.2-0.3-0.3-0.5c-0.2-0.4-0.3-0.7-0.4-1.1c0.4-0.1,0.9-0.3,1.3-0.3
        c1.6,0.1,2-0.2,2.3-1.8c0,0,0-0.1,0-0.1c0.4-2.5,0.4-2.5,3-2.3c2.3,0.2,4.6,0.4,6.8,0.7c1.2,0.1,1.9-0.4,2.3-1.5
        c0.6-1.6,0.7-1.6,2.2-0.9c1.8,0.8,2.7,0.6,3.8-1c1.6-2.5,3.2-5.1,4.7-7.7c0.6-1,1.3-1.7,2.2-2.3c1.1-0.7,2.1-1.6,2.9-2.5
        c1.9-2.1,3.8-4.3,5.6-6.5c0.5-0.6,0.8-1.4,1.2-2c0.4-0.6,0.8-1.3,1.3-1.9c0.7-0.7,1.6-1.1,2.4-1.7c1.3-0.9,1.7-2.2,1.3-3.8
        c-0.5-1.8-0.4-1.8,1.5-2c1.3-0.1,2.5-0.3,3.8-0.5c2.2-0.4,3.3,0.7,2.9,2.9c-0.3,1.4-0.6,2.7-0.9,4.1c-0.5,2.3,0.4,3.2,2.7,2.8
        c0.7-0.1,1.5-0.4,2.2-0.6c1-0.3,1.8-0.7,1.8-2c0-0.7,0.4-0.8,1-0.5c0.3,0.2,0.6,0.4,0.8,0.6c1.4,1,2.2,1,3.3-0.4
        c2.5-3,2.5-2.3,5.1-0.7c0.8,0.5,1.6,0.9,2.5,1.3c0.7,0.3,0.8,0.7,0.5,1.4c-0.2,0.4-0.1,1-0.1,1.5c0.5-0.1,1.1,0,1.6-0.3
        c1-0.6,2-1.2,2.6-2.1c0.7-0.9,1-2.1,1.3-3.2c0.2-0.9,0.5-1.5,1.3-1.9c0.6-0.3,1.2-0.9,1.6-1.5c0.6-0.7,1-1.5,1.5-2.2
        c1.2-1.8,2.3-2.2,4.4-1.3c0.7,0.3,0.9,0.6,0.7,1.4c-0.3,1.3-0.4,2.6-0.5,3.9c-0.1,0.9,0.4,1.4,1.3,1.3c1.5-0.1,2.9-0.3,4.4-0.6
        c0.3-0.1,0.7-0.6,0.8-1.1c0.1-0.4,0.1-0.9,0.1-1.3c0-0.7,0.3-1.2,1.1-1.1c1.2,0.2,1.7-0.5,2.1-1.5c0.7-2,2.5-2.8,4.2-3.6
        c0.4-0.2,0.9-0.3,1.4-0.3c1.1-0.2,1.7-0.7,1.6-1.9c-0.1-0.9,0.3-1.3,1.3-1.3c0.2,0,0.4,0,0.6,0c1.4,0,1.7-0.6,1-1.8
        c-0.5-0.7-1-1.4-1.5-2.1c-0.4-0.5-0.7-1-1.2-1.7c1.5,0,2.8-0.2,4.1,0.1c1.7,0.4,3.4,1.2,5,2c1,0.5,1.3,1.4,0.9,2.6
        c-0.4,1.1-0.7,2.2-1,3.3c-0.6,2.1,0.3,3.5,2.6,3.5c1.2,0,2.4-0.3,3.6-0.5c0.7-0.2,1.2,0,1.4,0.7c0.5,1.5,1.3,2.5,3.1,2.2
        c0.5-0.1,1.2,0.5,1.6,0.9c0.7,0.9,1.3,2,1.9,3c0.5,0.7,0.3,1.4-0.3,1.9c-0.2,0.1-0.4,0.3-0.5,0.5c-0.3,0.5-0.5,1-0.7,1.5
        c0.6,0,1.4,0.3,1.8,0c1.6-0.8,3-1.8,4.5-2.8c1.1-0.7,2.2-0.9,3.5-0.7c2.1,0.3,4.1-0.2,5.6-1.7c1-1,2.1-1.4,3.4-1.4
        c1.6,0,1.9-0.3,2.3-1.9c0.4-1.5,0.6-3,0.9-4.5c0.3-1.1,0.8-1.3,1.7-0.8c2.1,1.3,4.3,2.4,6.8,2.5c0.2,0,0.5,0.5,0.5,0.8
        c0.1,0.9,0.1,1.9,0,2.8c0,0.4-0.2,0.9-0.5,1.2c-0.9,1.2-1.8,2.4-2.7,3.6c-0.7,0.9-1,1.8-0.9,2.9c0.2,2,0.4,4,0.6,6.1
        c0.1,0.7,0.3,1,1.1,1.1c2,0.3,3,2.9,1.7,4.5c-0.6,0.7-1.3,1.3-2,1.9c-1.1,1-1.2,1.5-0.5,2.7c0.6,1.1,1.4,2.1,2,3.1
        c1.3,2.2,1,3.2-1.1,4.6c-0.5,0.4-1.1,0.7-1.6,1.1c-1.1,0.9-1.2,2.1-0.1,3c1.3,1.2,2.7,2.3,4.2,3.4c1,0.8,1.1,0.9,0.4,2
        c-1.5,2.1-1.9,4.6-2,7.1c0,1.3-0.1,2.5-0.9,3.7c-0.6,0.9-0.8,2.3-1,3.4c-0.1,0.2,0.2,0.7,0.4,0.8c1.2,0.8,2.5,1.5,3.8,2.2
        c0.2,0.1,0.8-0.1,1.1-0.3c0.3-0.2,0.4-0.6,0.5-1c0.5-0.9,1.7-1.5,2.7-1.2c0.2,0.1,0.5,0.5,0.6,0.7c0.5,2.4,1,4.8,1.5,7.2
        c0.1,0.3-0.3,0.8-0.5,1.1c-0.1,0.1-0.3,0.1-0.4,0.2c-1.9,1.4-3.7,2.3-6.1,0.9c-1.1-0.7-2.8-0.4-4.2-0.7c-0.5-0.1-1.1-0.3-1.6-0.5
        c-1-0.5-1.9-1-2.9-1.4c-1.2-0.5-1.8-0.3-2.4,0.9c-0.6,1.1-1,1.2-2.1,0.5c-1.5-0.9-2.2-0.8-3.5,0.3c-0.6,0.6-1.2,1.1-1.8,1.7
        c-0.7,0.7-1.4,0.7-2.2,0.1c-0.9-0.7-1.9-1.2-2.9-1.8c-0.8-0.5-1.6-0.4-2.1,0.6c-0.5,1-1.5,1.1-2.4,1.1c-1.7,0.1-2.1,0.4-2.7,2
        c-0.1,0.4-0.3,0.8-0.3,1.2c-0.3,1.4-1.1,2.3-2.5,2.7c-0.3,0.1-0.6,0.3-1,0.3C216.2,215.6,215.1,217.8,215.6,220z"/>
      <g transform="translate(155,150)">
        <image class="target" xmlns:xlink="http://www.w3.org/1999/xlink" xlink:href="/img/geo-target.png" width="44" height="54"></image>
        <image class="target-active" xmlns:xlink="http://www.w3.org/1999/xlink" xlink:href="/img/geo-target-active.png" width="44" height="54"></image>
      </g>
      <g class="text" transform="translate(91, 117) scale(0.45)">
        <use xlink:href="#text-bg" filter="url(#text-bg-shadow)"/>
        <use xlink:href="#text-bg" fill="rgb(255,255,255)" transform="translate(-6, -7) scale(1.03, 1.2)"/>
        <use xlink:href="#text-bg" fill="rgb(65,139,69)"/>
      </g>
      <text class="text" x="109" y="136">Карагадинская область</text>
    </g>

    <g class="region-wrap">
      <path class="region highlight yellow" transform="translate(-1,0)" d="M273.6,211.2c1.9-0.3,3.7-0.7,5.5-1c1-0.2,1.5-0.7,1.6-1.7c0-0.4,0.1-0.9,0-1.4c-0.2-1-0.2-1.8,1-2.3
        c0.9-0.4,0.9-1.4,0.1-1.9c-0.8-0.5-1.6-1-2.5-1.4c-0.3-0.1-1,0.1-1.1,0.3c-0.3,0.7-0.7,0.6-1.3,0.4c-0.7-0.3-1.3-0.2-1.6,0.7
        c-0.1,0.2-0.4,0.3-0.7,0.5c-1.5,0.8-3,1.5-4.4,2.5c-0.4,0.2-0.3,1.1-0.4,1.6c-1.5-0.3-3.2-0.8-4.8-1c-1.1-0.2-2.3-0.2-3.5-0.2
        c-0.6,0-0.9-0.1-1-0.7c-0.5-2.2-0.9-4.5-1.4-6.7c-0.2-0.8,0.3-1,1-1c1.1-0.1,2.2,0,3-1c0.1-0.2,0.7-0.2,0.9,0
        c0.9,0.5,1.4,0.2,1.9-0.6c1-1.6,1-1.5,2.6-0.7c0.6,0.3,1.4,0.5,1.9,0.9c2.4,1.6,4.9,1.6,7.6,1.1c1.3-0.2,2.2,0,3,1.2
        c0.6,0.9,1.3,1.7,2,2.6c0.6,0.7,1.3,0.8,2.1,0.4c1.4-0.7,2.9-1.5,4.3-2.2c1.5-0.7,2.8-0.6,4.3,0.3c1.4,0.8,3.1,1.1,4.7,1.4
        c2.7,0.6,5.4,1.1,8.1,1.5c1.1,0.2,2.3,0.3,3.6,0.5c-0.2,0.4-0.2,0.7-0.4,1c-0.8,1.5-0.9,3.1-0.7,4.7c0.1,1.3,1,2.2,2,2.9
        c1,0.7,1.9,1.4,2.9,2.1c1.4,1,2.9,0.7,4.3,0c0.8-0.4,1.2-0.3,1.6,0.4c0.2,0.4,0.6,0.8,0.8,1.2c0.8,1.9,2.4,2.4,4.3,2.5
        c0.8,0.1,1.6,0.2,2.4,0.2c0.7,0,1,0.4,0.9,1c-0.2,1.1-0.4,2.3-0.6,3.4c-0.2,0.7-0.6,0.8-1.2,0.3c-0.1,0-0.1-0.1-0.2-0.1
        c-1.9-1.8-1.9-1.8-4.3-0.5c-0.7,0.4-1.3,0.7-2,1.1c-0.6,0.3-1,0.2-1.2-0.6c-0.4-1.7-1.4-2.1-2.9-1.2c-0.3,0.2-0.6,0.4-0.9,0.7
        c-2.2,2.1-5,3-7.7,4.1c-4.1,1.7-8,3.9-12,6c-1.2,0.6-1.5,1.6-1,2.4c0.8,1.2,2.9,2,3.6,1.2c1-1.1,2-0.7,3.1-0.4
        c0.5,0.1,0.9,0.2,1.6,0.4c-0.3,0.4-0.6,0.7-0.7,1c-0.2,0.8-0.4,1.6-0.3,2.4c0.3,2.1,0.5,4.3,1.1,6.3c0.6,2,1.4,3.9,2.3,5.7
        c1.1,2.3,2.5,4.4,3.7,6.6c0.3,0.5,0.4,1.2,0.3,1.8c-0.1,1.2,0.1,1.8,1.3,2.1c0.4,0.1,0.8,0,1.1,0.2c0.4,0.3,0.8,0.8,0.8,1.3
        c0,0.4-0.5,0.8-1,1c-0.5,0.2-1,0.1-1.5,0.3c-0.7,0.2-1.4,0.5-2,0.9c-1.4,1-1.3,2.1,0.1,3.1c0.1,0.1,0.2,0.2,0.2,0.2
        c-0.9,0.8-1.9,1.3-2.5,2.2c-1.4,2.1-1.1,4.3,0.1,6.4c0.5,0.9,1.1,1.9,1.5,3c-0.5-0.2-1.1-0.4-1.4-0.7c-2.1-2.1-4.9-2.3-7.7-2.5
        c-1,0-1.7-0.3-2.3-1.1c-0.4-0.5-1.2-0.7-1.8-0.9c-0.9-0.3-1.6-0.6-1.9-1.6c-0.2-0.8-0.9-1-1.5-0.6c-1.6,0.9-3.3,0.6-4.9,0.2
        c-3.3-0.9-6.5-0.8-9.7,0c-3.9,0.9-7.8,0.5-11.7,0c-1.7-0.2-3.2,0-4.6,0.9c-2.2,1.4-4.6,1.6-7,1.7c-2,0.1-4,0.1-6,0
        c-0.9,0-1.8-0.3-2.7-0.6c-1.3-0.5-2.6-1.2-3.8-1.9c-1-0.6-1.4-1.4-1.1-2.6c0.2-0.8,0.4-1.7,0.6-2.5c0.3-1.1-0.2-1.8-1.2-2.3
        c-0.6-0.2-1.2-0.4-1.8-0.6c-1.4-0.5-1.5-0.6-0.8-2c0.6-1.2,1.2-2.5,1.6-3.8c0.6-1.7,0-3.3-1.5-4.3c-1.8-1.2-3.7-2.3-5.7-3.2
        c-1.8-0.9-3.2-1.8-3.7-3.9c-0.3-1.4-1.6-2.2-2.8-3c-1.2-0.9-2.4-2-3.6-3c-0.6-0.6-0.7-1.3-0.5-2.2c0.3-1.6,0.3-3.3,0.4-4.9
        c0-0.4-0.3-0.9-0.6-1.3c-0.6-0.7-0.4-1.3,0.3-1.8c0.2-0.2,0.4-0.3,0.6-0.5c1.4-1.1,1.3-1.1,0.9-2.8c-0.3-1.2-0.3-2.5-0.4-3.8
        c0-0.9,0.5-1.2,1.3-0.9c1.4,0.4,2.4,0.1,3.1-1.2c0.2-0.4,0.7-0.7,1.1-0.9c1.1-0.5,1.4-1.2,1.1-2.3c-0.1-0.4-0.2-0.9-0.2-1.3
        c0-0.5,0-1.2,0.3-1.5c0.7-0.8,1.6-1.4,2.5-2.1c0.2-0.1,0.5,0,0.8,0c0.5-0.1,1-0.2,1.5-0.2c0.4-0.1,0.7-0.1,1-0.2
        c0.4-0.1,0.8-0.2,1.3-0.3c0.2-0.1,0.4-0.3,0.5-0.2c1.4,0.4,2.3-0.4,3.3-1.1c0.3-0.2,1-0.2,1.3,0c0.9,0.5,1.6,0.4,2.4-0.2
        c0.5-0.3,0.9-0.7,1.4-0.9c0.5-0.2,1.2-0.3,1.6-0.1c1.2,0.6,2.4,0.5,3.4-0.2c1-0.7,1.8-0.5,2.7,0.1c2.6,1.8,4.2,1.8,6.8-0.1
        c0.7-0.5,1.3-0.6,2-0.1c1.2,0.8,2.5,1.1,3.8,0.5c0.7-0.4,1.2,0.1,1.6,0.6c1.2,1.4,1.3,1.3,3.1,0.8c1-0.3,2.1-0.1,3.1-0.1
        c0.6,0,1.1-0.1,1.7-0.1c0-0.5-0.1-1.1-0.1-1.6C273.6,211.3,273.6,211.1,273.6,211.2z M270.2,260c0,0.1,0,0.1,0,0.2
        c0.3,0,0.5,0,0.8,0c2.1,0.3,3.7-0.1,4.5-2.4c0.1-0.4,0.4-1,0.3-1.2c-0.3-0.3-0.9-0.7-1.3-0.6c-1.1,0.1-2.1,0.4-3.1,0.8
        c-1.5,0.6-3,0.8-4.4,0c-1.9-1-3.4-0.6-4.8,0.8c-0.4,0.4-0.6,1-1,1.5c0.5,0.3,1.1,0.5,1.6,0.8c0.1,0.1,0.3,0,0.4,0
        C265.6,260,267.9,260,270.2,260z"/>
      <g transform="translate(245,197)">
        <image class="target" xmlns:xlink="http://www.w3.org/1999/xlink" xlink:href="/img/geo-target.png" width="44" height="54"></image>
        <image class="target-active" xmlns:xlink="http://www.w3.org/1999/xlink" xlink:href="/img/geo-target-active.png" width="44" height="54"></image>
      </g>
      <g class="text" transform="translate(181, 165) scale(0.45)">
        <use xlink:href="#text-bg" filter="url(#text-bg-shadow)"/>
        <use xlink:href="#text-bg" fill="rgb(255,255,255)" transform="translate(-6, -7) scale(1.03, 1.2)"/>
        <use xlink:href="#text-bg" fill="rgb(65,139,69)"/>
      </g>
      <text class="text" x="204" y="184">Алматинская область</text>
    </g>

    <path class="region yellow" d="M257.9,287.1c-1.3,0.4-2.5,0.7-3.7,1c-0.4,0.1-1.2,0-1.3-0.3c-0.3-0.6-0.4-1.4,0.4-1.9
      c3.6-2.2,7.3-4.2,11.5-5c2.4-0.5,4.8-0.6,7.1-1c1.1-0.2,2.2-0.5,3.3-0.8c0.4-0.1,2.3,1,2.2,1.4c-0.1,0.4-0.5,0.9-0.8,1.1
      c-0.7,0.4-1.6,0.7-2.4,1.1c-1.3,0.6-1.4,1.2-0.6,2.3c0.8,1,0.7,1.5-0.5,1.9c-2.2,0.7-4.4,1.4-6.6,1.9c-1.1,0.2-2.4-0.1-3.5-0.4
      C261.2,288.1,259.5,287.5,257.9,287.1z"/>

    <g class="region-wrap">
      <path class="region highlight yellow" transform="translate(0, -1)" d="M215.1,288.6c-0.6-0.3-1.2-0.6-1.8-1c-0.9-0.7-1.9-0.8-3-0.6c-1.7,0.3-3.3,0.3-4.5-1.3
        c-0.3-0.4-1-0.6-1.5-0.5c-1.3,0.1-2.4-0.4-3.5-1.1c-1-0.7-2.1-1-3.3-0.2c-1,0.6-2,0.4-2.9-0.2c-0.9-0.6-1.7-0.5-2.7-0.1
        c-0.8,0.3-1.8,0.3-2.6,0.1c-1.5-0.5-2.7-0.1-3.8,0.8c-0.6,0.5-1.1,1-1.7,1.5c-0.8,0.7-1.1,1.6-0.8,2.6c0.2,0.9,0,1.5-0.8,2.1
        c-0.7,0.5-1.1,1.5-1.6,2.4c-0.2,0.3-0.2,0.7-0.3,1.4c-0.4-0.6-0.7-0.9-0.9-1.2c-0.9-2.3-2.6-3.7-4.6-5c-0.6-0.4-1.2-0.8-1.9-1.3
        c-0.9-0.6-1.3-1.5-1.3-2.5c0-0.7-0.1-1.3-0.2-2c-0.2-1.7-1-2.9-2.5-3.6c-1.5-0.7-3.1-1.3-4.6-1.9c-1-0.4-2-0.7-2.9-1.2
        c-1.4-0.7-1.6-1.2-1-2.6c0.7-1.6,1.4-3.2,2.2-4.7c2.3-4.2,2.5-8.5,1.4-13.1c-2.2-8.8-5.2-17.4-8.8-25.7c-0.3-0.6-0.5-1.2-0.8-2.1
        c1.5-0.1,2.8-0.3,4.1-0.3c4.8-0.2,9.6-0.3,14.3-0.5c8.2-0.3,16.4-0.7,24.6-1.1c4.2-0.2,8.5-0.3,12.7-0.5c1.5,0,1.6,0.2,0.9,1.6
        c-0.3,0.6-0.4,1.3-0.6,1.9c-0.3,0.7-0.6,1.3-1,1.9c-1.1,1.5-0.9,2.2,0.9,2.7c0.7,0.2,1.4,0.4,2,0.8c0.4,0.3,0.9,0.8,1,1.2
        c0.7,2.5,2.3,4.2,4.4,5.7c0.4,0.3,0.8,0.7,1.1,1.1c0.8,1.5,1.9,2.7,3.4,3.5c1.9,1.1,3.4,2.4,4.1,4.7c0.2,0.9,1.3,1.6,2.2,2.1
        c1.8,1.1,3.8,1.9,5.7,3c2.7,1.6,3.1,3.2,1.9,6.1c-0.4,0.9-0.9,1.7-1.3,2.5c-0.7,1.3-0.5,1.8,0.9,2.3c0.6,0.2,1.2,0.4,1.8,0.6
        c1.2,0.4,1.5,0.9,1.2,2.2c-0.2,0.8-0.4,1.6-0.5,2.4c-0.3,1.4,0.4,2.4,1.6,3.1c1.2,0.7,2.5,1.2,3.7,1.9c0.5,0.3,1.2,0.5,1.5,1
        c0.3,0.4,0.4,1,0.3,1.5c0,0.2-0.7,0.4-1,0.4c-1.5,0-3.1,0.1-4.6,0c-1.1-0.1-2.2-0.7-3.3-1c-1.3-0.4-2.7-0.8-4-1.3
        c-0.4-0.1-0.8-0.4-1.2-0.6c-1.4-0.8-2.7-1.7-4.1-2.4c-1-0.6-2.1-0.6-3.2-0.1c-2.2,1-4.4,1.9-6.7,2.8c-0.9,0.4-1.4,0.9-1.7,1.8
        c-0.6,2.3-1.3,4.6-1.8,6.9c-0.1,0.6,0.3,1.4,0.6,2.1c0.1,0.3,0.5,0.6,0.7,0.9C215.2,288.5,215.2,288.5,215.1,288.6z"/>
      <g transform="translate(170,218)">
        <image class="target" xmlns:xlink="http://www.w3.org/1999/xlink" xlink:href="/img/geo-target.png" width="44" height="54"></image>
        <image class="target-active" xmlns:xlink="http://www.w3.org/1999/xlink" xlink:href="/img/geo-target-active.png" width="44" height="54"></image>
      </g>
      <g class="text" transform="translate(106, 184) scale(0.45)">
        <use xlink:href="#text-bg" filter="url(#text-bg-shadow)"/>
        <use xlink:href="#text-bg" fill="rgb(255,255,255)" transform="translate(-6, -7) scale(1.03, 1.2)"/>
        <use xlink:href="#text-bg" fill="rgb(65,139,69)"/>
      </g>
      <text class="text" x="132" y="203">Жамбылская область</text>
    </g>

    <g class="region-wrap">
      <path class="region highlight yellow" transform="translate(0, -0.7)" d="M130.9,228.3c0.4-0.1,0.6-0.2,0.9-0.2c4.2-0.2,8.4-0.3,12.6-0.5c2.7-0.1,5.5-0.2,8.2-0.4
        c0.8-0.1,1.3,0.2,1.7,1c4.3,9.9,8.1,19.9,10.1,30.5c0.4,2.4,0,4.6-0.9,6.7c-1,2.2-2.1,4.4-3.1,6.7c-1.1,2.5-0.8,3.3,1.7,4.3
        c2,0.8,3.9,1.5,5.9,2.3c2.2,0.9,3.4,2.5,3.2,4.9c-0.1,1.9,0.7,3.2,2.2,4.2c0.9,0.6,1.7,1.2,2.6,1.8c1.9,1.1,2.6,3.2,3.6,5
        c0.1,0.2,0,0.6-0.1,0.7c-1.1,0.9-2.3,1.8-2,3.6c-0.1,0-0.2,0-0.4,0c-0.3-0.3-0.7-0.5-1-0.8c-1.1-1-1.8-1.1-2.8,0.1
        c-1,1.3-1.9,2.6-2.7,4c-0.8,1.4-1.9,2.2-3.5,2.3c-2.6,0.3-4.7,1.5-6.2,3.7c-0.7,1-1.5,1.7-2.7,2.1c-1.6,0.6-2.7,1.8-3,3.5
        c-0.1,0.4-0.4,0.7-0.7,1.1c-1.3,1.3-2.6,2.5-3.8,3.8c-1.2,1.3-1.4,2.8-0.7,4.4c0.2,0.4,0.3,0.9,0.5,1.6c-0.4-0.1-0.7,0-1-0.1
        c-1.7-0.9-3.5-1.8-5.2-2.8c-0.9-0.5-1.4-1.3-0.7-2.5c0.5-0.8,0.1-1.5-0.5-2c-1.6-1.2-3.3-2.1-5.4-2.1c-4.1,0-8.3,0.1-12.4,0.2
        c-0.9,0-1.2-0.3-1.3-1.1c-0.9-4.4-1.8-8.8-2.6-13.2c-0.2-1-0.6-1.3-1.6-1.3c-1.1,0.1-2.2,0-3.3,0c-0.8,0-1.1-0.3-1.1-1.1
        c0.1-1.2,0.2-2.4,0.3-3.6c0.1-0.7,0.3-1.1,1.1-1.3c0.6-0.2,1.2-0.6,1.8-1c6.1-4.5,12.1-9,18.2-13.5c0.9-0.7,1.2-1.4,0.6-2.4
        c-0.6-1-0.5-2-0.1-3c1.2-2.7,2.2-5.4,3.5-8.1c0.7-1.5,0.5-2.5-0.7-3.7c-3.2-3-6.2-6.2-9.3-9.2c-1.1-1.1-1.5-2.3-1.3-3.8
        c0.7-4.8,1.3-9.7,2.1-14.5c0.3-1.9-0.2-3.5-0.6-5.2C131.1,229.2,131,228.8,130.9,228.3z"/>
      <g transform="translate(121,247)">
        <image class="target" xmlns:xlink="http://www.w3.org/1999/xlink" xlink:href="/img/geo-target.png" width="44" height="54"></image>
        <image class="target-active" xmlns:xlink="http://www.w3.org/1999/xlink" xlink:href="/img/geo-target-active.png" width="44" height="54"></image>
      </g>
      <g class="text" transform="translate(39.8, 214) scale(0.45)">
        <use xlink:href="#text-bg" filter="url(#text-bg-shadow)" transform="scale(1.2, 1)"/>
        <use xlink:href="#text-bg" fill="rgb(255,255,255)" transform="translate(-6, -7) scale(1.23, 1.2)"/>
        <use xlink:href="#text-bg" fill="rgb(65,139,69)" transform="scale(1.2, 1)"/>
      </g>
      <text class="text small" x="67" y="233">Южно-Казахстанская область</text>
    </g>
  </g>

</svg>
