<?xml version="1.0" encoding="utf-8"?>
<svg xmlns="http://www.w3.org/2000/svg"
	xmlns:xlink="http://www.w3.org/1999/xlink"
	width="43px" height="31px">
<filter id="filter0" x="-14.29%" y="-21.74%" width="128.57%" height="147.83%" filterUnits="objectBoundingBox">
<feGaussianBlur in="SourceAlpha" result="dsBlurOut" stdDeviation="2.50"/>
<feFlood result="dsFloodOut" flood-color="rgb(0,0,0)"/>
<feComposite in="dsFloodOut" in2="dsBlurOut" result="dsShadow" operator="atop"/>
<feComponentTransfer in="dsShadow" result="dsShadowOpacity">
<feFuncA type="linear" slope="0.25"/>
</feComponentTransfer>
<feOffset in="dsShadowOpacity" dx="1.00" dy="1.73" result="dsOffset"/>
<feComposite in="dsOffset" in2="SourceAlpha" result="dropShadow" operator="out"/>
</filter>
<defs>
<path id="symbol0" fill-rule="evenodd" d="M 4 25C 4 25 39 25 39 25 39 25 39 21.17 39 21.17 39 21.17 4 21.17 4 21.17 4 21.17 4 25 4 25ZM 4 15.42C 4 15.42 39 15.42 39 15.42 39 15.42 39 11.58 39 11.58 39 11.58 4 11.58 4 11.58 4 11.58 4 15.42 4 15.42ZM 4 2C 4 2 4 5.83 4 5.83 4 5.83 39 5.83 39 5.83 39 5.83 39 2 39 2 39 2 4 2 4 2Z"/>
</defs>
<g>
<use xlink:href="#symbol0" filter="url(#filter0)"/>
<use xlink:href="#symbol0" fill="rgb(243,243,243)"/>
</g>
</svg>