<?xml version="1.0" encoding="utf-8"?>
<svg xmlns="http://www.w3.org/2000/svg"
	xmlns:xlink="http://www.w3.org/1999/xlink"
	width="50px" height="39px">
<path fill="rgb(245,165,29)" fill-rule="evenodd" d="M 44.88 0C 44.88 0 5.12 0 5.12 0 3.04 0-0 1.82-0 5.2-0 5.2-0 33.8-0 33.8-0 36.67 2.3 39 5.12 39 5.12 39 44.88 39 44.88 39 47.7 39 50 36.67 50 33.8 50 33.8 50 5.2 50 5.2 50 3.3 48.73 0 44.88 0ZM 39.36 5.78C 39.36 5.78 25 17.67 25 17.67 25 17.67 10.64 5.78 10.64 5.78 10.64 5.78 39.36 5.78 39.36 5.78ZM 5.69 33.22C 5.69 33.22 5.69 9.85 5.69 9.85 5.69 9.85 23.03 24.21 23.03 24.21 23.6 24.69 24.3 24.93 25 24.93 25.7 24.93 26.4 24.69 26.97 24.21 26.97 24.21 44.31 9.85 44.31 9.85 44.31 9.85 44.31 33.22 44.31 33.22 44.31 33.22 5.69 33.22 5.69 33.22Z"/>
</svg>