<?xml version="1.0" encoding="utf-8"?>
<svg xmlns="http://www.w3.org/2000/svg"
	xmlns:xlink="http://www.w3.org/1999/xlink"
	width="18px" height="18px">
<path fill="rgb(61,123,65)" fill-rule="evenodd" d="M 17.99 14.21C 18.03 14.5 17.94 14.75 17.72 14.97 17.72 14.97 15.19 17.48 15.19 17.48 15.08 17.61 14.93 17.72 14.74 17.81 14.56 17.9 14.38 17.96 14.2 17.98 14.19 17.98 14.15 17.98 14.08 17.99 14.02 18 13.94 18 13.84 18 13.6 18 13.2 17.96 12.66 17.88 12.13 17.79 11.46 17.59 10.68 17.27 9.9 16.94 9.02 16.46 8.02 15.81 7.03 15.16 5.98 14.27 4.86 13.14 3.97 12.26 3.24 11.42 2.65 10.62 2.07 9.82 1.6 9.08 1.24 8.4 0.89 7.72 0.62 7.1 0.44 6.55 0.26 6 0.14 5.52 0.08 5.12 0.02 4.72-0.01 4.4 0 4.18 0.02 3.95 0.02 3.82 0.02 3.79 0.05 3.62 0.1 3.44 0.19 3.25 0.28 3.07 0.39 2.92 0.52 2.8 0.52 2.8 3.05 0.27 3.05 0.27 3.23 0.09 3.43-0 3.66-0 3.83-0 3.97 0.05 4.1 0.14 4.23 0.24 4.33 0.36 4.42 0.5 4.42 0.5 6.46 4.37 6.46 4.37 6.58 4.57 6.61 4.79 6.56 5.03 6.51 5.28 6.4 5.48 6.23 5.64 6.23 5.64 5.3 6.58 5.3 6.58 5.27 6.6 5.25 6.64 5.23 6.7 5.21 6.76 5.2 6.81 5.2 6.85 5.26 7.11 5.37 7.42 5.55 7.76 5.7 8.07 5.94 8.44 6.25 8.88 6.57 9.31 7.02 9.82 7.61 10.39 8.18 10.98 8.69 11.43 9.13 11.75 9.57 12.08 9.95 12.32 10.24 12.47 10.54 12.62 10.77 12.71 10.93 12.75 10.93 12.75 11.17 12.79 11.17 12.79 11.19 12.79 11.24 12.78 11.29 12.77 11.35 12.75 11.39 12.72 11.42 12.7 11.42 12.7 12.5 11.59 12.5 11.59 12.73 11.39 13 11.29 13.3 11.29 13.52 11.29 13.69 11.33 13.82 11.4 13.82 11.4 13.84 11.4 13.84 11.4 13.84 11.4 17.51 13.58 17.51 13.58 17.78 13.74 17.94 13.95 17.99 14.21Z"/>
</svg>