<?xml version="1.0" encoding="utf-8"?>
<svg xmlns="http://www.w3.org/2000/svg"
	xmlns:xlink="http://www.w3.org/1999/xlink"
	width="50px" height="50px">
<path fill="rgb(245,165,29)" fill-rule="evenodd" d="M 49.98 39.46C 50.08 40.27 49.83 40.98 49.23 41.58 49.23 41.58 42.19 48.57 42.19 48.57 41.88 48.92 41.46 49.22 40.95 49.47 40.44 49.72 39.94 49.88 39.44 49.95 39.41 49.95 39.3 49.96 39.12 49.97 38.95 49.99 38.72 50 38.44 50 37.77 50 36.68 49.89 35.18 49.66 33.68 49.43 31.85 48.86 29.68 47.96 27.51 47.06 25.04 45.71 22.29 43.91 19.54 42.11 16.61 39.64 13.51 36.49 11.04 34.06 8.99 31.73 7.37 29.5 5.74 27.28 4.44 25.22 3.45 23.33 2.46 21.44 1.72 19.73 1.23 18.19 0.73 16.66 0.4 15.33 0.22 14.22 0.04 13.11-0.03 12.24 0.01 11.6 0.04 10.96 0.06 10.61 0.06 10.54 0.13 10.05 0.29 9.54 0.54 9.03 0.78 8.52 1.08 8.1 1.44 7.79 1.44 7.79 8.48 0.74 8.48 0.74 8.97 0.25 9.54-0 10.17-0 10.63-0 11.04 0.13 11.39 0.4 11.74 0.66 12.04 0.99 12.29 1.38 12.29 1.38 17.95 12.13 17.95 12.13 18.27 12.69 18.36 13.31 18.22 13.98 18.08 14.65 17.78 15.22 17.32 15.68 17.32 15.68 14.72 18.27 14.72 18.27 14.65 18.34 14.59 18.46 14.54 18.62 14.48 18.78 14.46 18.91 14.46 19.01 14.6 19.76 14.92 20.6 15.41 21.56 15.83 22.4 16.49 23.44 17.37 24.66 18.25 25.87 19.5 27.28 21.13 28.87 22.72 30.49 24.13 31.75 25.36 32.65 26.6 33.55 27.63 34.22 28.46 34.64 29.29 35.06 29.92 35.32 30.36 35.41 30.36 35.41 31.03 35.54 31.03 35.54 31.1 35.54 31.21 35.51 31.37 35.46 31.53 35.41 31.64 35.35 31.71 35.28 31.71 35.28 34.73 32.2 34.73 32.2 35.37 31.64 36.11 31.36 36.95 31.36 37.55 31.36 38.03 31.46 38.38 31.67 38.38 31.67 38.44 31.67 38.44 31.67 38.44 31.67 48.65 37.71 48.65 37.71 49.39 38.17 49.83 38.75 49.98 39.46Z"/>
</svg>