<?xml version="1.0" encoding="utf-8"?>
<svg xmlns="http://www.w3.org/2000/svg"
	xmlns:xlink="http://www.w3.org/1999/xlink"
	width="11px" height="20px">
<path fill="rgb(61,123,65)" fill-rule="evenodd" d="M 11 10C 11 10.36 10.87 10.72 10.6 10.99 10.6 10.99 2.3 19.59 2.3 19.59 1.77 20.14 0.92 20.14 0.39 19.59-0.14 19.05-0.14 18.16 0.39 17.61 0.39 17.61 7.74 10 7.74 10 7.74 10 0.39 2.39 0.39 2.39-0.14 1.85-0.14 0.96 0.39 0.41 0.92-0.13 1.77-0.13 2.3 0.41 2.3 0.41 10.6 9.01 10.6 9.01 10.87 9.29 11 9.65 11 10Z"/>
</svg>