<?xml version="1.0" encoding="utf-8"?>
<svg xmlns="http://www.w3.org/2000/svg"
	xmlns:xlink="http://www.w3.org/1999/xlink"
	width="216px" height="267px">
<clipPath id="clip0">
<path fill-rule="evenodd" d="M-16 282.97C-16 282.97-16-15.94-16-15.94-16-15.94 232-15.94 232-15.94 232-15.94 232 282.97 232 282.97 232 282.97-16 282.97-16 282.97ZM 16.01 207.1C 16.01 207.1 16.01 239.5 16.01 239.5 16.01 245.88 21.66 250.96 28.41 250.96 28.41 250.96 91.79 250.96 91.79 250.96 91.79 250.96 101.45 195.62 101.45 195.62 97.11 195.56 93.93 191.53 94.95 187.28 94.95 187.28 97.71 175.83 97.71 175.83 98.02 174.51 98.71 173.38 99.63 172.51 99.35 172.31 99.07 172.1 98.8 171.88 98.8 171.88 74.2 151.41 74.2 151.41 74.2 151.41 59.23 154.93 59.23 154.93 33.87 160.92 16.01 182.43 16.01 207.1ZM 145.92 34.88C 145.92 34.88 125.77 0.53 86.45 24.63 81.45 27.7 73.68 33.57 69.04 39.63 61.61 47.58 56.54 60.51 55.75 81.43 50.95 83.28 47.18 87.93 48.11 99.35 49.1 111.29 55.3 116.37 61.82 117.4 70.62 138.95 88 156.7 108.57 156.7 129.2 156.7 146.62 138.86 155.4 117.25 161.6 115.92 167.32 110.77 168.25 99.36 169.02 90.01 166.63 85.2 163.11 82.75 172.89 42.71 145.92 34.88 145.92 34.88ZM 199.99 207.11C 200 182.43 182.38 160.92 157.03 154.93 157.03 154.93 142.26 151.41 142.26 151.41 142.26 151.41 117.69 171.88 117.69 171.88 117.42 172.1 117.15 172.31 116.87 172.51 117.8 173.38 118.48 174.51 118.8 175.83 118.8 175.83 121.55 187.28 121.55 187.28 122.58 191.53 119.4 195.56 115.06 195.62 115.06 195.62 124.72 250.97 124.72 250.97 124.72 250.97 188.09 250.97 188.09 250.97 194.85 250.97 199.99 245.88 199.99 239.5 199.99 239.5 199.99 207.11 199.99 207.11ZM 108.58 146.65C 84.79 146.65 65.64 114.21 65.64 87.34 65.64 83.66 65.76 80.24 65.98 77.07 100.77 78.6 121.36 64.59 132.55 52.43 143.17 63.07 148.69 76.5 151.51 86.47 151.51 86.76 151.51 87.04 151.51 87.33 151.52 114.21 132.37 146.65 108.58 146.65Z"/>
</clipPath>
<defs>
<path id="symbol0" fill-rule="evenodd" d="M 188.09 250.97C 188.09 250.97 124.72 250.97 124.72 250.97 124.72 250.97 115.06 195.62 115.06 195.62 119.4 195.56 122.58 191.53 121.55 187.28 121.55 187.28 118.8 175.83 118.8 175.83 118.48 174.51 117.8 173.38 116.87 172.51 117.15 172.31 117.42 172.1 117.69 171.88 117.69 171.88 142.26 151.41 142.26 151.41 142.26 151.41 157.03 154.93 157.03 154.93 182.38 160.92 200 182.43 199.99 207.11 199.99 207.11 199.99 239.5 199.99 239.5 199.99 245.88 194.85 250.97 188.09 250.97ZM 155.4 117.25C 146.62 138.86 129.2 156.7 108.57 156.7 88 156.7 70.62 138.95 61.82 117.4 55.3 116.37 49.1 111.29 48.11 99.35 47.18 87.93 50.95 83.28 55.75 81.43 56.54 60.51 61.61 47.58 69.04 39.63 73.68 33.57 81.45 27.7 86.45 24.63 125.77 0.53 145.92 34.88 145.92 34.88 145.92 34.88 172.89 42.71 163.11 82.75 166.63 85.2 169.02 90.01 168.25 99.36 167.32 110.77 161.6 115.92 155.4 117.25ZM 151.51 86.47C 148.69 76.5 143.17 63.07 132.55 52.43 121.36 64.59 100.77 78.6 65.98 77.07 65.76 80.24 65.64 83.66 65.64 87.34 65.64 114.21 84.79 146.65 108.58 146.65 132.37 146.65 151.52 114.21 151.51 87.33 151.51 87.04 151.51 86.76 151.51 86.47ZM 74.2 151.41C 74.2 151.41 98.8 171.88 98.8 171.88 99.07 172.1 99.35 172.31 99.63 172.51 98.71 173.38 98.02 174.51 97.71 175.83 97.71 175.83 94.95 187.28 94.95 187.28 93.93 191.53 97.11 195.56 101.45 195.62 101.45 195.62 91.79 250.96 91.79 250.96 91.79 250.96 28.41 250.96 28.41 250.96 21.66 250.96 16.01 245.88 16.01 239.5 16.01 239.5 16.01 207.1 16.01 207.1 16.01 182.43 33.87 160.92 59.23 154.93 59.23 154.93 74.2 151.41 74.2 151.41Z"/>
</defs>
<g>
<use xlink:href="#symbol0" fill="rgb(61,123,65)"/>
<use clip-path="url(#clip0)" xlink:href="#symbol0" fill="none" stroke="rgb(255,255,255)" stroke-width="32.00px"/>
</g>
</svg>